<svg width="40" height="40" viewBox="0 0 40 40" fill="none" xmlns="http://www.w3.org/2000/svg">
<circle cx="20" cy="20" r="20" fill="#21897E" fill-opacity="0.17"/>
<path d="M19.9502 27.3511C24.1396 27.3511 27.5894 23.9014 27.5894 19.7119C27.5894 15.5298 24.1323 12.0728 19.9429 12.0728C15.7607 12.0728 12.311 15.5298 12.311 19.7119C12.311 23.9014 15.7607 27.3511 19.9502 27.3511ZM19.9502 25.6738C16.647 25.6738 13.9956 23.0151 13.9956 19.7119C13.9956 16.4087 16.6396 13.75 19.9429 13.75C23.2534 13.75 25.9048 16.4087 25.9121 19.7119C25.9194 23.0151 23.2534 25.6738 19.9502 25.6738ZM19.9209 17.3169C20.4922 17.3169 20.9536 16.8481 20.9536 16.2842C20.9536 15.6982 20.4922 15.2368 19.9209 15.2368C19.3496 15.2368 18.8882 15.6982 18.8882 16.2842C18.8882 16.8481 19.3496 17.3169 19.9209 17.3169ZM18.6465 23.667H21.6128C21.9644 23.667 22.2354 23.4106 22.2354 23.0591C22.2354 22.7222 21.9644 22.4585 21.6128 22.4585H20.8657V19.1699C20.8657 18.7012 20.6313 18.3936 20.1846 18.3936H18.7783C18.4341 18.3936 18.1558 18.6572 18.1558 18.9941C18.1558 19.353 18.4341 19.6021 18.7783 19.6021H19.4961V22.4585H18.6465C18.3022 22.4585 18.0239 22.7222 18.0239 23.0591C18.0239 23.4106 18.3022 23.667 18.6465 23.667Z" fill="#21897E"/>
</svg>
