<svg width="40" height="40" viewBox="0 0 40 40" fill="none" xmlns="http://www.w3.org/2000/svg">
<circle cx="20" cy="20" r="20" fill="#21897E" fill-opacity="0.17"/>
<path d="M12.9888 17.4561C13.5234 17.4561 13.8091 17.1631 13.8091 16.6284V15.0317C13.8091 14.3579 14.1533 14.0356 14.7979 14.0356H16.4238C16.9585 14.0356 17.2515 13.7427 17.2515 13.2153C17.2515 12.688 16.9585 12.4023 16.4238 12.4023H14.6587C13.04 12.4023 12.1758 13.252 12.1758 14.8633V16.6284C12.1758 17.1631 12.4688 17.4561 12.9888 17.4561ZM26.0039 17.4561C26.5312 17.4561 26.8169 17.1631 26.8169 16.6284V14.8633C26.8169 13.2593 25.96 12.4023 24.334 12.4023H22.5688C22.0342 12.4023 21.7412 12.688 21.7412 13.2153C21.7412 13.7427 22.0342 14.0356 22.5688 14.0356H24.1948C24.832 14.0356 25.1836 14.3579 25.1836 15.0317V16.6284C25.1836 17.1631 25.4766 17.4561 26.0039 17.4561ZM16.1235 19.7192C16.1235 20.1514 16.4312 20.4517 16.8633 20.4517H18.7603V22.356C18.7603 22.7881 19.0679 23.0884 19.4927 23.0884C19.9321 23.0884 20.2397 22.7881 20.2397 22.356V20.4517H22.144C22.5688 20.4517 22.8765 20.1514 22.8765 19.7192C22.8765 19.2871 22.5688 18.9722 22.144 18.9722H20.2397V17.0752C20.2397 16.6431 19.9321 16.3354 19.4927 16.3354C19.0679 16.3354 18.7603 16.6431 18.7603 17.0752V18.9722H16.8633C16.4312 18.9722 16.1235 19.2871 16.1235 19.7192ZM14.6587 27.0435H16.4238C16.9585 27.0435 17.2515 26.7505 17.2515 26.2231C17.2515 25.7031 16.9585 25.4102 16.4238 25.4102H14.7979C14.1533 25.4102 13.8091 25.0879 13.8091 24.4141V22.8101C13.8091 22.2827 13.5161 21.9897 12.9888 21.9897C12.4614 21.9897 12.1758 22.2827 12.1758 22.8101V24.5825C12.1758 26.1865 13.04 27.0435 14.6587 27.0435ZM22.5688 27.0435H24.334C25.96 27.0435 26.8169 26.1865 26.8169 24.5825V22.8101C26.8169 22.2827 26.5239 21.9897 26.0039 21.9897C25.4692 21.9897 25.1836 22.2827 25.1836 22.8101V24.4141C25.1836 25.0879 24.832 25.4102 24.1948 25.4102H22.5688C22.0342 25.4102 21.7412 25.7031 21.7412 26.2231C21.7412 26.7505 22.0342 27.0435 22.5688 27.0435Z" fill="#21897E"/>
</svg>
