<svg width="9" height="16" viewBox="0 0 9 16" fill="none" xmlns="http://www.w3.org/2000/svg">
<path d="M9.00213 8.02975C9.00327 8.22712 8.96544 8.42277 8.89081 8.60548C8.81618 8.7882 8.70622 8.95438 8.56723 9.09451L2.5686 15.0931C2.42877 15.233 2.26277 15.3439 2.08008 15.4196C1.89739 15.4952 1.70158 15.5342 1.50384 15.5342C1.3061 15.5342 1.11029 15.4952 0.927597 15.4196C0.744906 15.3439 0.578909 15.233 0.439083 15.0931C0.299257 14.9533 0.188341 14.7873 0.112668 14.6046C0.0369944 14.4219 -0.00195319 14.2261 -0.00195319 14.0284C-0.0019532 13.8306 0.0369943 13.6348 0.112668 13.4521C0.188341 13.2695 0.299257 13.1035 0.439083 12.9636L5.40295 8.02975L0.634038 3.08088C0.480639 2.94293 0.357354 2.7748 0.271894 2.58703C0.186434 2.39925 0.140639 2.19586 0.137371 1.98958C0.134102 1.7833 0.173431 1.57856 0.2529 1.38817C0.332368 1.19778 0.450266 1.02583 0.599219 0.883088C0.748171 0.740342 0.924975 0.629863 1.11857 0.558564C1.31217 0.487266 1.5184 0.456681 1.72435 0.46872C1.93031 0.48076 2.13157 0.535166 2.31554 0.628535C2.49951 0.721904 2.66224 0.852227 2.79355 1.01136L8.58223 7.00999C8.84664 7.28424 8.99677 7.64884 9.00213 8.02975Z" fill="#2791B5"/>
</svg>
