<svg width="35" height="36" viewBox="0 0 35 36" fill="none" xmlns="http://www.w3.org/2000/svg">
<path d="M10.3899 24.4023H24.6106C25.1204 24.4023 25.5276 24.2646 25.8323 23.9893C26.137 23.7139 26.2893 23.3506 26.2893 22.8994C26.2893 22.5654 26.2102 22.252 26.052 21.959C25.8997 21.6602 25.7005 21.3818 25.4544 21.124C25.2083 20.8604 24.9475 20.6055 24.6721 20.3594C24.4495 20.166 24.2766 19.9023 24.1536 19.5684C24.0364 19.2344 23.9427 18.8564 23.8723 18.4346C23.8079 18.0127 23.7464 17.5703 23.6878 17.1074C23.6116 16.1113 23.4388 15.2119 23.1692 14.4092C22.9055 13.6006 22.5335 12.918 22.053 12.3613C21.5725 11.7988 20.969 11.3887 20.2425 11.1309C20.0374 10.5391 19.6917 10.0527 19.2054 9.67188C18.719 9.28516 18.1507 9.0918 17.5003 9.0918C16.8499 9.0918 16.2815 9.28516 15.7952 9.67188C15.3089 10.0527 14.9632 10.5391 14.7581 11.1309C14.0315 11.3887 13.428 11.7988 12.9475 12.3613C12.4671 12.918 12.095 13.6006 11.8313 14.4092C11.5677 15.2119 11.3977 16.1113 11.3216 17.1074C11.2571 17.5703 11.1927 18.0127 11.1282 18.4346C11.0638 18.8564 10.97 19.2344 10.847 19.5684C10.7298 19.9023 10.5569 20.166 10.3284 20.3594C10.053 20.6055 9.79227 20.8604 9.54617 21.124C9.30008 21.3818 9.10086 21.6602 8.94852 21.959C8.79617 22.252 8.72 22.5654 8.72 22.8994C8.72 23.3506 8.86942 23.7139 9.16824 23.9893C9.47293 24.2646 9.88016 24.4023 10.3899 24.4023ZM17.5003 28.1904C18.0511 28.1904 18.5432 28.0732 18.9768 27.8389C19.4163 27.6104 19.7679 27.3057 20.0315 26.9248C20.2952 26.5439 20.4446 26.1279 20.4798 25.6768H14.5208C14.5559 26.1279 14.7054 26.5439 14.969 26.9248C15.2327 27.3057 15.5813 27.6104 16.0149 27.8389C16.4544 28.0732 16.9495 28.1904 17.5003 28.1904Z" fill="#2791B5"/>
</svg>
