<svg width="28" height="39" viewBox="0 0 28 39" fill="none" xmlns="http://www.w3.org/2000/svg">
<path fill-rule="evenodd" clip-rule="evenodd" d="M20.3453 6.47978H24.9995C24.9995 2.7051 22.7604 0.5 18.9667 0.5H9.03257C5.23884 0.5 2.99976 2.7051 2.99976 6.43163V14.5684C2.99976 18.2949 5.23884 20.5 9.03257 20.5H18.9667C22.7604 20.5 24.9995 18.2949 24.9995 14.5684V14.2217H20.3453C18.1853 14.2217 16.4343 12.4972 16.4343 10.37C16.4343 8.24276 18.1853 6.5183 20.3453 6.5183V6.47978ZM20.3463 8.13574H24.1792C24.6328 8.13574 25.0005 8.49788 25.0005 8.9446V11.7563C24.9952 12.2009 24.6306 12.56 24.1792 12.5652H20.4343C19.3408 12.5797 18.3846 11.8424 18.1366 10.7934C18.0124 10.1423 18.1868 9.47036 18.613 8.95775C19.0392 8.44514 19.6737 8.14426 20.3463 8.13574ZM20.5115 11.0918H20.8733C21.3377 11.0918 21.7142 10.7211 21.7142 10.2637C21.7142 9.80636 21.3377 9.4356 20.8733 9.4356H20.5115C20.2894 9.43303 20.0755 9.51813 19.9175 9.6719C19.7595 9.82568 19.6706 10.0353 19.6707 10.2541C19.6706 10.713 20.0456 11.0866 20.5115 11.0918ZM8.21173 6.48045H14.4205C14.885 6.48045 15.2614 6.10969 15.2614 5.65234C15.2614 5.19498 14.885 4.82422 14.4205 4.82422H8.21173C7.75112 4.82419 7.37621 5.18912 7.37085 5.64271C7.37082 6.10165 7.74575 6.47518 8.21173 6.48045Z" fill="#9CA2AA"/>
<path d="M4.03078 36.6709C5.60305 36.6709 6.75051 35.7725 6.95559 34.4199V34.3906H5.8716L5.86184 34.4102C5.66164 35.2061 4.9634 35.7041 4.03078 35.7041C2.76125 35.7041 1.97023 34.6543 1.97023 32.9844V32.9746C1.97023 31.2998 2.76125 30.25 4.0259 30.25C4.95363 30.25 5.66164 30.8115 5.86672 31.6758V31.6904H6.9507L6.95559 31.666C6.77004 30.2646 5.57863 29.2832 4.0259 29.2832C2.06789 29.2832 0.85207 30.6992 0.85207 32.9746V32.9844C0.85207 35.2549 2.07277 36.6709 4.03078 36.6709ZM9.48902 36.5879C10.1921 36.5879 10.7488 36.2852 11.0613 35.748H11.1443V36.5H12.1941V32.8721C12.1941 31.7588 11.4421 31.0947 10.1091 31.0947C8.90309 31.0947 8.06812 31.6758 7.94117 32.5449L7.93629 32.5791H8.9568L8.96168 32.5596C9.08863 32.1836 9.47437 31.9688 10.0603 31.9688C10.7781 31.9688 11.1443 32.291 11.1443 32.8721V33.3408L9.70875 33.4238C8.4441 33.502 7.73121 34.0537 7.73121 35.001V35.0107C7.73121 35.9727 8.47828 36.5879 9.48902 36.5879ZM8.7859 34.9668V34.957C8.7859 34.4785 9.11793 34.2148 9.85035 34.1709L11.1443 34.0879V34.542C11.1443 35.2256 10.5632 35.7432 9.77223 35.7432C9.20094 35.7432 8.7859 35.4551 8.7859 34.9668ZM13.4482 36.5H14.5078V33.3311C14.5078 32.5645 15.0596 32.0664 15.8701 32.0664C16.0703 32.0664 16.251 32.0908 16.4414 32.1299V31.1533C16.334 31.1289 16.1484 31.1045 15.9775 31.1045C15.2695 31.1045 14.7764 31.4365 14.5859 31.998H14.5078V31.1973H13.4482V36.5ZM19.009 36.5879C19.7512 36.5879 20.3323 36.2461 20.6399 35.665H20.7229V36.5H21.7776V29.1172H20.7229V32.0371H20.6399C20.3567 31.4658 19.7366 31.1045 19.009 31.1045C17.6614 31.1045 16.8118 32.1641 16.8118 33.8438V33.8535C16.8118 35.5186 17.676 36.5879 19.009 36.5879ZM19.3118 35.6846C18.4231 35.6846 17.8909 34.9912 17.8909 33.8535V33.8438C17.8909 32.7061 18.4231 32.0127 19.3118 32.0127C20.1907 32.0127 20.7375 32.7109 20.7375 33.8438V33.8535C20.7375 34.9863 20.1955 35.6846 19.3118 35.6846ZM25.0434 36.6025C26.3032 36.6025 27.2407 35.9336 27.2407 34.9521V34.9424C27.2407 34.1758 26.7524 33.7412 25.7319 33.502L24.8921 33.3115C24.2964 33.1699 24.0522 32.9648 24.0522 32.6328V32.623C24.0522 32.1982 24.4721 31.9102 25.0532 31.9102C25.6489 31.9102 26.0249 32.1885 26.1274 32.5596V32.5693H27.1382V32.5645C27.0454 31.7002 26.269 31.0947 25.0581 31.0947C23.8569 31.0947 22.9975 31.7588 22.9975 32.6816V32.6865C22.9975 33.4629 23.4614 33.917 24.4624 34.1465L25.3071 34.3418C25.9223 34.4834 26.1714 34.708 26.1714 35.04V35.0498C26.1714 35.4844 25.7173 35.7822 25.063 35.7822C24.4331 35.7822 24.0473 35.5137 23.9155 35.1133L23.9106 35.1084H22.8511V35.1133C22.9536 36.002 23.7641 36.6025 25.0434 36.6025Z" fill="#6B7280"/>
</svg>
