<svg width="13" height="10" viewBox="0 0 13 10" fill="none" xmlns="http://www.w3.org/2000/svg">
<path d="M9.28442 6.05258V4.29239H5.33423V2.0114H9.28442V0.257812L12.4874 3.15453L9.28442 6.05258Z" fill="#2B6173"/>
<path d="M9.54906 6.05242C9.54906 5.53953 9.54906 5.02664 9.54906 4.51507C9.54906 4.44255 9.54906 4.37003 9.54906 4.29751C9.54906 4.15512 9.42587 4.03382 9.28125 4.03382C8.83668 4.03382 8.39078 4.03382 7.94622 4.03382C7.23786 4.03382 6.5295 4.03382 5.81981 4.03382C5.65778 4.03382 5.4971 4.03382 5.33507 4.03382C5.42479 4.12216 5.51317 4.20918 5.60288 4.29751C5.60288 4.04041 5.60288 3.78198 5.60288 3.52488C5.60288 3.11615 5.60288 2.70742 5.60288 2.29868C5.60288 2.20375 5.60288 2.10882 5.60288 2.01257C5.51317 2.10091 5.42479 2.18793 5.33507 2.27627C5.77964 2.27627 6.22554 2.27627 6.6701 2.27627C7.37846 2.27627 8.08682 2.27627 8.79651 2.27627C8.95854 2.27627 9.11922 2.27627 9.28125 2.27627C9.42587 2.27627 9.54906 2.15497 9.54906 2.01257C9.54906 1.49968 9.54906 0.986787 9.54906 0.475212C9.54906 0.402696 9.54906 0.330179 9.54906 0.257662C9.39641 0.319631 9.24375 0.3816 9.09244 0.443569C9.45532 0.771873 9.81821 1.10018 10.1797 1.42716C10.7529 1.94533 11.3273 2.46481 11.9004 2.98298C12.0317 3.10164 12.1629 3.22031 12.2954 3.34029C12.2954 3.21635 12.2954 3.0911 12.2954 2.96716C11.9326 3.29546 11.5697 3.62377 11.2081 3.95075C10.635 4.46892 10.0606 4.9884 9.48746 5.50657C9.35623 5.62523 9.22501 5.7439 9.09244 5.86388C8.98934 5.95749 8.98934 6.1434 9.09244 6.23701C9.20358 6.33722 9.36025 6.33722 9.47139 6.23701C9.83428 5.90871 10.1972 5.58041 10.5587 5.25342C11.1318 4.73525 11.7063 4.21577 12.2794 3.6976C12.4106 3.57894 12.5418 3.46027 12.6744 3.34029C12.7775 3.24668 12.7775 3.06077 12.6744 2.96716C12.3115 2.63885 11.9486 2.31055 11.5871 1.98356C11.014 1.4654 10.4395 0.945913 9.86641 0.427747C9.73519 0.309083 9.60396 0.190419 9.47139 0.0704361C9.30401 -0.0811902 9.01478 0.0216519 9.01478 0.256343C9.01478 0.769236 9.01478 1.28213 9.01478 1.7937C9.01478 1.86622 9.01478 1.93874 9.01478 2.01125C9.10449 1.92291 9.19287 1.83589 9.28259 1.74756C8.83802 1.74756 8.39212 1.74756 7.94756 1.74756C7.2392 1.74756 6.53084 1.74756 5.82115 1.74756C5.65912 1.74756 5.49844 1.74756 5.33641 1.74756C5.1918 1.74756 5.0686 1.86886 5.0686 2.01125C5.0686 2.26836 5.0686 2.52678 5.0686 2.78389C5.0686 3.19262 5.0686 3.60135 5.0686 4.01008C5.0686 4.10502 5.0686 4.19995 5.0686 4.2962C5.0686 4.43859 5.1918 4.55989 5.33641 4.55989C5.78098 4.55989 6.22688 4.55989 6.67144 4.55989C7.3798 4.55989 8.08816 4.55989 8.79785 4.55989C8.95988 4.55989 9.12056 4.55989 9.28259 4.55989C9.19287 4.47156 9.10449 4.38453 9.01478 4.2962C9.01478 4.80909 9.01478 5.32198 9.01478 5.83356C9.01478 5.90607 9.01478 5.97859 9.01478 6.05111C9.01478 6.18955 9.13797 6.3214 9.28259 6.3148C9.42587 6.30953 9.54906 6.2001 9.54906 6.05242Z" fill="#2B6173"/>
<path d="M3.84692 9.73519V7.98556H7.79711V5.69138H3.84692V3.94043L0.51001 6.83847L3.84692 9.73519Z" fill="#2B6173"/>
<path d="M4.11965 9.73629C4.11965 9.2234 4.11965 8.71051 4.11965 8.19893C4.11965 8.12642 4.11965 8.0539 4.11965 7.98138C4.02993 8.06972 3.94155 8.15674 3.85184 8.24508C4.2964 8.24508 4.7423 8.24508 5.18687 8.24508C5.89523 8.24508 6.60358 8.24508 7.31328 8.24508C7.4753 8.24508 7.63599 8.24508 7.79801 8.24508C7.94263 8.24508 8.06582 8.12378 8.06582 7.98138C8.06582 7.72428 8.06582 7.46585 8.06582 7.20875C8.06582 6.80002 8.06582 6.39128 8.06582 5.98255C8.06582 5.88762 8.06582 5.79269 8.06582 5.69644C8.06582 5.55404 7.94263 5.43274 7.79801 5.43274C7.35345 5.43274 6.90755 5.43274 6.46298 5.43274C5.75462 5.43274 5.04627 5.43274 4.33657 5.43274C4.17455 5.43274 4.01386 5.43274 3.85184 5.43274C3.94155 5.52108 4.02993 5.6081 4.11965 5.69644C4.11965 5.18355 4.11965 4.67066 4.11965 4.15908C4.11965 4.08656 4.11965 4.01405 4.11965 3.94153C4.11965 3.83605 4.05269 3.74112 3.95494 3.70025C3.85184 3.65806 3.74471 3.68311 3.66303 3.75431C3.28676 4.08129 2.90915 4.40828 2.53288 4.73526C1.93298 5.25607 1.33443 5.77687 0.734534 6.29635C0.597951 6.41502 0.462707 6.53236 0.326124 6.65103C0.221678 6.74068 0.223017 6.9345 0.326124 7.02416C0.702397 7.35115 1.08001 7.67813 1.45628 8.00512C2.05617 8.52592 2.65473 9.04672 3.25462 9.56621C3.39121 9.68487 3.52645 9.80222 3.66303 9.92088C3.76748 10.0119 3.94021 10.0303 4.04198 9.92088C4.13572 9.82068 4.15446 9.64532 4.04198 9.54775C3.66571 9.22076 3.2881 8.89378 2.91183 8.56679C2.31193 8.04599 1.71338 7.52519 1.11348 7.0057C0.976901 6.88704 0.841658 6.76969 0.705075 6.65103C0.705075 6.77497 0.705075 6.90022 0.705075 7.02416C1.08135 6.69717 1.45896 6.37019 1.83523 6.0432C2.43512 5.5224 3.03368 5.0016 3.63357 4.48211C3.77016 4.36345 3.9054 4.2461 4.04198 4.12744C3.88933 4.06547 3.73668 4.0035 3.58537 3.94153C3.58537 4.45442 3.58537 4.96732 3.58537 5.47889C3.58537 5.55141 3.58537 5.62392 3.58537 5.69644C3.58537 5.83884 3.70856 5.96014 3.85318 5.96014C4.29774 5.96014 4.74364 5.96014 5.18821 5.96014C5.89656 5.96014 6.60492 5.96014 7.31462 5.96014C7.47664 5.96014 7.63733 5.96014 7.79935 5.96014C7.70963 5.8718 7.62126 5.78478 7.53154 5.69644C7.53154 5.95355 7.53154 6.21197 7.53154 6.46908C7.53154 6.87781 7.53154 7.28654 7.53154 7.69527C7.53154 7.7902 7.53154 7.88513 7.53154 7.98138C7.62126 7.89304 7.70963 7.80602 7.79935 7.71769C7.35479 7.71769 6.90888 7.71769 6.46432 7.71769C5.75596 7.71769 5.04761 7.71769 4.33791 7.71769C4.17589 7.71769 4.0152 7.71769 3.85318 7.71769C3.70856 7.71769 3.58537 7.83899 3.58537 7.98138C3.58537 8.49428 3.58537 9.00717 3.58537 9.51874C3.58537 9.59126 3.58537 9.66378 3.58537 9.73629C3.58537 9.87473 3.70856 10.0066 3.85318 9.99999C3.99645 9.9934 4.11965 9.88396 4.11965 9.73629Z" fill="#2B6173"/>
</svg>
