<svg width="40" height="40" viewBox="0 0 40 40" fill="none" xmlns="http://www.w3.org/2000/svg">
<circle cx="20" cy="20" r="20" fill="#21897E" fill-opacity="0.17"/>
<path d="M14.6606 14.3652C14.2505 14.7388 14.2578 15.2515 14.5581 15.5591C14.8657 15.8813 15.3491 15.9326 15.7886 15.5444C16.8506 14.4458 18.3447 13.7573 20.0073 13.7573C23.0249 13.7573 25.4639 15.9619 25.8887 18.7671H24.7681C24.1821 18.7671 24.0137 19.2285 24.3652 19.7119L26.1963 22.2681C26.4746 22.6636 26.9214 22.6636 27.207 22.2681L29.0381 19.7192C29.3896 19.2285 29.2358 18.7671 28.6353 18.7671H27.5952C27.1411 15.061 23.9111 12.0801 20.0073 12.0801C17.9053 12.0801 15.9937 12.9736 14.6606 14.3652ZM10.9546 19.7119C10.603 20.2026 10.7642 20.6641 11.3574 20.6641H12.4121C12.8662 24.3701 16.0962 27.3584 20.0073 27.3584C22.1094 27.3584 24.021 26.4575 25.354 25.0659C25.7568 24.6851 25.7495 24.165 25.4565 23.8647C25.1489 23.5352 24.6655 23.4985 24.2261 23.8794C23.1714 24.9854 21.6699 25.6738 20.0073 25.6738C16.9824 25.6738 14.5435 23.4692 14.1187 20.6641H15.2246C15.8105 20.6641 15.979 20.21 15.6274 19.7192L13.8037 17.1704C13.5181 16.7749 13.0713 16.7749 12.7856 17.1704L10.9546 19.7119Z" fill="#21897E"/>
</svg>
