<svg width="40" height="40" viewBox="0 0 40 40" fill="none" xmlns="http://www.w3.org/2000/svg">
<circle cx="20" cy="20" r="20" fill="#21897E" fill-opacity="0.17"/>
<path d="M25.4414 26.1895C25.6602 26.4082 26.0088 26.4219 26.2275 26.1895C26.4531 25.957 26.4463 25.6221 26.2275 25.4033L14.5381 13.7207C14.3193 13.5088 13.9639 13.502 13.7451 13.7207C13.5332 13.9326 13.5332 14.3018 13.7451 14.5137L25.4414 26.1895ZM20 14.1172C18.8037 14.1172 17.7236 14.3223 16.7188 14.6504L17.9561 15.8877C18.6055 15.71 19.2754 15.6074 20 15.6074C24.2656 15.6074 27.6084 19.2852 27.6084 20.0781C27.6084 20.5977 26.5762 21.9238 24.915 22.9834L26.0566 24.1318C28.1895 22.7168 29.4268 20.8779 29.4268 20.0781C29.4268 18.6699 25.667 14.1172 20 14.1172ZM20 26.0322C21.251 26.0322 22.3994 25.8203 23.4453 25.4648L22.208 24.2275C21.5107 24.4258 20.7793 24.542 20 24.542C15.7275 24.542 12.3848 21.0215 12.3848 20.0781C12.3848 19.627 13.4785 18.2256 15.2354 17.125L14.0664 15.9561C11.8652 17.3848 10.5664 19.2578 10.5664 20.0781C10.5664 21.4727 14.4082 26.0322 20 26.0322ZM23.3359 21.2607C23.4932 20.8984 23.582 20.4883 23.582 20.0713C23.582 18.082 21.9824 16.5029 20 16.5029C19.5762 16.5029 19.1797 16.585 18.8105 16.7354L23.3359 21.2607ZM20 23.6465C20.4785 23.6465 20.9229 23.5371 21.3262 23.3525L16.7051 18.7383C16.5137 19.1416 16.4111 19.5928 16.4111 20.0781C16.418 22.0195 18.0039 23.6465 20 23.6465Z" fill="#21897E"/>
</svg>
