<svg width="29" height="38" viewBox="0 0 29 38" fill="none" xmlns="http://www.w3.org/2000/svg">
<path d="M11.6348 18.7733V15.7156C11.6348 14.9351 12.2722 14.3023 13.0584 14.3023H15.9326C16.3102 14.3023 16.6723 14.4512 16.9393 14.7163C17.2063 14.9813 17.3563 15.3408 17.3563 15.7156V18.7733C17.3539 19.0978 17.4821 19.4099 17.7124 19.6402C17.9427 19.8705 18.2561 20 18.5829 20H20.5438C21.4596 20.0023 22.3388 19.6428 22.9872 19.0008C23.6356 18.3588 24 17.487 24 16.5778V7.86686C24 7.13246 23.6721 6.43584 23.1046 5.96467L16.434 0.675869C15.2737 -0.251438 13.6111 -0.221498 12.4854 0.746979L5.96701 5.96467C5.37274 6.42195 5.01755 7.12064 5 7.86686V16.5689C5 18.4639 6.54738 20 8.45617 20H10.3723C11.0512 20 11.603 19.4562 11.6079 18.7822L11.6348 18.7733Z" fill="#2791B5"/>
<path d="M1.02699 36H2.5016V33.0312H5.67543V36H7.15004V28.9541H5.67543V31.8154H2.5016V28.9541H1.02699V36ZM10.8651 36.1123C12.5204 36.1123 13.5165 35.0674 13.5165 33.3145V33.3047C13.5165 31.5664 12.5057 30.5068 10.8651 30.5068C9.22449 30.5068 8.21375 31.5713 8.21375 33.3047V33.3145C8.21375 35.0625 9.20984 36.1123 10.8651 36.1123ZM10.8651 34.9941C10.1034 34.9941 9.67371 34.374 9.67371 33.3145V33.3047C9.67371 32.2549 10.1083 31.625 10.8651 31.625C11.6171 31.625 12.0565 32.2549 12.0565 33.3047V33.3145C12.0565 34.374 11.622 34.9941 10.8651 34.9941ZM14.4386 36H15.8644V32.7578C15.8644 32.1426 16.255 31.6885 16.8116 31.6885C17.3683 31.6885 17.6954 32.0254 17.6954 32.6016V36H19.1212V32.6943C19.1212 32.1133 19.4923 31.6885 20.0685 31.6885C20.6642 31.6885 20.9571 32.0156 20.9571 32.665V36H22.3829V32.3086C22.3829 31.2002 21.714 30.5068 20.6446 30.5068C19.8927 30.5068 19.2677 30.9023 19.0236 31.498H18.9357C18.7159 30.8779 18.1739 30.5068 17.4415 30.5068C16.7384 30.5068 16.1818 30.8584 15.9523 31.4639H15.8644V30.624H14.4386V36ZM25.888 36.1123C27.4603 36.1123 28.1537 35.2041 28.3197 34.5303L28.3295 34.4814H27.0013L26.9867 34.5107C26.889 34.7158 26.5423 35.0479 25.9173 35.0479C25.1605 35.0479 24.6869 34.5352 24.6722 33.6514H28.3734V33.207C28.3734 31.5811 27.3968 30.5068 25.8295 30.5068C24.2621 30.5068 23.2611 31.6055 23.2611 33.3145V33.3193C23.2611 35.043 24.2523 36.1123 25.888 36.1123ZM25.8539 31.5762C26.474 31.5762 26.9183 31.9766 27.0062 32.7578H24.6869C24.7748 31.9961 25.2337 31.5762 25.8539 31.5762Z" fill="#2791B5"/>
</svg>
