<svg width="37" height="39" viewBox="0 0 37 39" fill="none" xmlns="http://www.w3.org/2000/svg">
<path fill-rule="evenodd" clip-rule="evenodd" d="M13.83 0.5H23.169C26.57 0.5 28.49 2.429 28.5 5.83V15.17C28.5 18.57 26.57 20.5 23.169 20.5H13.83C10.429 20.5 8.5 18.57 8.5 15.17V5.83C8.5 2.429 10.429 0.5 13.83 0.5ZM18.5494 16.3604C18.9804 16.3604 19.3394 16.0404 19.3794 15.6104V5.42043C19.4194 5.11043 19.2704 4.79943 19.0004 4.63043C18.7194 4.46043 18.3794 4.46043 18.1104 4.63043C17.8394 4.79943 17.6904 5.11043 17.7194 5.42043V15.6104C17.7704 16.0404 18.1294 16.3604 18.5494 16.3604ZM23.1499 16.3596C23.5699 16.3596 23.9289 16.0396 23.9799 15.6096V12.3296C24.0089 12.0086 23.8599 11.7096 23.5889 11.5396C23.3199 11.3696 22.9799 11.3696 22.6999 11.5396C22.4289 11.7096 22.2799 12.0086 22.3199 12.3296V15.6096C22.3599 16.0396 22.7189 16.3596 23.1499 16.3596ZM14.7194 15.6097C14.6794 16.0397 14.3204 16.3597 13.8894 16.3597C13.4594 16.3597 13.0994 16.0397 13.0604 15.6097V8.69973C13.0304 8.38873 13.1794 8.07973 13.4504 7.90973C13.7194 7.73973 14.0604 7.73973 14.3304 7.90973C14.5994 8.07973 14.7504 8.38873 14.7194 8.69973V15.6097Z" fill="#9CA2AA"/>
<path d="M1.09781 36.5H2.19156V29.4541H1.09781V36.5ZM3.59707 36.5H4.65664V33.3896C4.65664 32.5352 5.14004 32.0029 5.91641 32.0029C6.69277 32.0029 7.05898 32.4375 7.05898 33.3164V36.5H8.11367V33.0674C8.11367 31.8027 7.45938 31.0947 6.27285 31.0947C5.50137 31.0947 4.99355 31.4365 4.73477 32.0029H4.65664V31.1973H3.59707V36.5ZM11.2819 36.6025C12.5416 36.6025 13.4791 35.9336 13.4791 34.9521V34.9424C13.4791 34.1758 12.9909 33.7412 11.9704 33.502L11.1305 33.3115C10.5348 33.1699 10.2907 32.9648 10.2907 32.6328V32.623C10.2907 32.1982 10.7106 31.9102 11.2916 31.9102C11.8873 31.9102 12.2633 32.1885 12.3659 32.5596V32.5693H13.3766V32.5645C13.2838 31.7002 12.5075 31.0947 11.2965 31.0947C10.0954 31.0947 9.23598 31.7588 9.23598 32.6816V32.6865C9.23598 33.4629 9.69984 33.917 10.7008 34.1465L11.5455 34.3418C12.1608 34.4834 12.4098 34.708 12.4098 35.04V35.0498C12.4098 35.4844 11.9557 35.7822 11.3014 35.7822C10.6715 35.7822 10.2858 35.5137 10.1539 35.1133L10.1491 35.1084H9.08949V35.1133C9.19203 36.002 10.0026 36.6025 11.2819 36.6025ZM15.0555 30.25C15.4169 30.25 15.7196 29.9521 15.7196 29.5908C15.7196 29.2246 15.4169 28.9268 15.0555 28.9268C14.6893 28.9268 14.3915 29.2246 14.3915 29.5908C14.3915 29.9521 14.6893 30.25 15.0555 30.25ZM14.5233 36.5H15.578V31.1973H14.5233V36.5ZM19.1222 38.3701C20.6261 38.3701 21.5782 37.5986 21.5782 36.3926V31.1973H20.5236V32.0664H20.4601C20.1525 31.4707 19.5763 31.1045 18.8341 31.1045C17.4571 31.1045 16.6124 32.1738 16.6124 33.6875V33.6973C16.6124 35.1914 17.4523 36.2412 18.8146 36.2412C19.5421 36.2412 20.128 35.9189 20.4503 35.3428H20.5284V36.3877C20.5284 37.1104 20.0109 37.5205 19.1368 37.5205C18.4191 37.5205 17.9894 37.2617 17.9015 36.8955L17.8966 36.8857H16.8273L16.8175 36.8955C16.9445 37.7793 17.7745 38.3701 19.1222 38.3701ZM19.1075 35.3672C18.2042 35.3672 17.6964 34.6787 17.6964 33.6924V33.6826C17.6964 32.6963 18.2042 32.0029 19.1075 32.0029C20.0011 32.0029 20.548 32.6963 20.548 33.6826V33.6924C20.548 34.6836 20.006 35.3672 19.1075 35.3672ZM22.9105 36.5H23.9701V33.3896C23.9701 32.5352 24.4535 32.0029 25.2298 32.0029C26.0062 32.0029 26.3724 32.4375 26.3724 33.3164V36.5H27.4271V33.0674C27.4271 31.8027 26.7728 31.0947 25.5863 31.0947C24.8148 31.0947 24.307 31.4365 24.0482 32.0029H23.9701V29.1172H22.9105V36.5ZM30.6686 36.5342C30.8736 36.5342 31.0689 36.5098 31.2398 36.4805V35.6357C31.0934 35.6504 31.0006 35.6553 30.8395 35.6553C30.317 35.6553 30.1021 35.4209 30.1021 34.8496V32.0322H31.2398V31.1973H30.1021V29.8594H29.023V31.1973H28.193V32.0322H29.023V35.1035C29.023 36.124 29.5016 36.5342 30.6686 36.5342ZM34.0858 36.6025C35.3455 36.6025 36.283 35.9336 36.283 34.9521V34.9424C36.283 34.1758 35.7948 33.7412 34.7743 33.502L33.9344 33.3115C33.3387 33.1699 33.0946 32.9648 33.0946 32.6328V32.623C33.0946 32.1982 33.5145 31.9102 34.0955 31.9102C34.6912 31.9102 35.0672 32.1885 35.1698 32.5596V32.5693H36.1805V32.5645C36.0877 31.7002 35.3114 31.0947 34.1004 31.0947C32.8993 31.0947 32.0399 31.7588 32.0399 32.6816V32.6865C32.0399 33.4629 32.5037 33.917 33.5047 34.1465L34.3495 34.3418C34.9647 34.4834 35.2137 34.708 35.2137 35.04V35.0498C35.2137 35.4844 34.7596 35.7822 34.1053 35.7822C33.4754 35.7822 33.0897 35.5137 32.9579 35.1133L32.953 35.1084H31.8934V35.1133C31.9959 36.002 32.8065 36.6025 34.0858 36.6025Z" fill="#6B7280"/>
</svg>
