<svg width="26" height="39" viewBox="0 0 26 39" fill="none" xmlns="http://www.w3.org/2000/svg">
<path d="M13.4277 9.77539V20.5H20.3687C21.2385 20.5 21.9477 19.7919 21.9477 18.921V9.77539H13.4277Z" fill="#9CA2AA"/>
<path d="M12.5733 9.77539H4.05261V18.921C4.05261 19.7919 4.76071 20.5 5.63161 20.5H12.5733V9.77539Z" fill="#9CA2AA"/>
<path d="M22.4736 4.71067H19.3156C19.6465 4.27065 19.842 3.72397 19.842 3.13167C19.842 1.68144 18.6619 0.5 17.2103 0.5C15.7464 0.5 14.5197 1.65969 13.9193 2.35024C13.554 2.76885 13.2407 3.21728 13.0003 3.65098C12.7586 3.21728 12.4452 2.76955 12.0814 2.35024C11.4796 1.66074 10.2522 0.5 8.78967 0.5C7.33874 0.5 6.158 1.68144 6.158 3.13167C6.158 3.72397 6.35415 4.27065 6.68504 4.71067H3.52633C3.2351 4.71067 3 4.94787 3 5.237V8.395C3 8.68624 3.2351 8.92134 3.52633 8.92134H22.4736C22.7635 8.92134 23 8.68624 23 8.395V5.237C23 4.94787 22.7635 4.71067 22.4736 4.71067ZM8.78967 4.71067C7.91876 4.71067 7.21067 4.00257 7.21067 3.13167C7.21067 2.26146 7.91876 1.55267 8.78967 1.55267C9.5532 1.55267 10.4638 2.09549 11.2876 3.04114C11.794 3.62432 12.1635 4.24609 12.3452 4.71067H8.78967ZM17.2103 4.71067H13.6547C13.8372 4.24609 14.2049 3.62432 14.713 3.04114C15.5348 2.09549 16.4457 1.55267 17.2103 1.55267C18.0802 1.55267 18.7893 2.26146 18.7893 3.13167C18.7893 4.00257 18.0802 4.71067 17.2103 4.71067Z" fill="#9CA2AA"/>
<path d="M1.26602 36.5H2.35977V29.4541H1.26602V36.5ZM3.76527 36.5H4.82484V33.3896C4.82484 32.5352 5.30824 32.0029 6.08461 32.0029C6.86098 32.0029 7.22719 32.4375 7.22719 33.3164V36.5H8.28188V33.0674C8.28188 31.8027 7.62758 31.0947 6.44106 31.0947C5.66957 31.0947 5.16176 31.4365 4.90297 32.0029H4.82484V31.1973H3.76527V36.5ZM10.8055 36.5H11.9335L13.8475 31.1973H12.7343L11.4159 35.4258H11.3329L10.0096 31.1973H8.8866L10.8055 36.5ZM15.2238 30.25C15.5851 30.25 15.8878 29.9521 15.8878 29.5908C15.8878 29.2246 15.5851 28.9268 15.2238 28.9268C14.8575 28.9268 14.5597 29.2246 14.5597 29.5908C14.5597 29.9521 14.8575 30.25 15.2238 30.25ZM14.6915 36.5H15.7462V31.1973H14.6915V36.5ZM19.0511 36.5342C19.2562 36.5342 19.4515 36.5098 19.6224 36.4805V35.6357C19.4759 35.6504 19.3832 35.6553 19.222 35.6553C18.6996 35.6553 18.4847 35.4209 18.4847 34.8496V32.0322H19.6224V31.1973H18.4847V29.8594H17.4056V31.1973H16.5755V32.0322H17.4056V35.1035C17.4056 36.124 17.8841 36.5342 19.0511 36.5342ZM22.7857 36.6025C24.1432 36.6025 24.8756 35.8213 25.0514 35.123L25.0611 35.0791L24.0406 35.084L24.0211 35.123C23.8941 35.3965 23.4889 35.7334 22.8102 35.7334C21.9361 35.7334 21.3795 35.1426 21.36 34.127H25.1197V33.7559C25.1197 32.1641 24.2115 31.0947 22.732 31.0947C21.2525 31.0947 20.2955 32.2031 20.2955 33.8584V33.8633C20.2955 35.543 21.233 36.6025 22.7857 36.6025ZM22.7369 31.9639C23.4547 31.9639 23.9869 32.4229 24.0699 33.3701H21.3746C21.4674 32.457 22.0143 31.9639 22.7369 31.9639Z" fill="#6B7280"/>
</svg>
