<svg width="61" height="60" viewBox="0 0 61 60" fill="none" xmlns="http://www.w3.org/2000/svg">
<circle opacity="0.5" cx="30.5" cy="30" r="30" fill="#ECEDF2"/>
<path d="M37.5 24.126C39.2252 24.5701 40.5 26.1362 40.5 28V36C40.5 38.2091 38.7091 40 36.5 40H24.5C22.2909 40 20.5 38.2091 20.5 36V28C20.5 25.7909 22.2909 24 24.5 24H31.5V23C31.5 21.3431 32.8431 20 34.5 20C36.1569 20 37.5 21.3431 37.5 23V24.126ZM37.5 26.2676V33.4142L35.2778 35.6364C34.8482 36.066 34.1518 36.066 33.7222 35.6364L31.5 33.4142V26H24.5C23.3954 26 22.5 26.8954 22.5 28V36C22.5 37.1046 23.3954 38 24.5 38H36.5C37.6046 38 38.5 37.1046 38.5 36V28C38.5 27.2597 38.0978 26.6134 37.5 26.2676ZM35.5 23C35.5 22.4477 35.0523 22 34.5 22C33.9477 22 33.5 22.4477 33.5 23V32.5858L34.5 33.5858L35.5 32.5858V23ZM29.5 34C30.0523 34 30.5 34.4477 30.5 35C30.5 35.5523 30.0523 36 29.5 36H25.5C24.9477 36 24.5 35.5523 24.5 35C24.5 34.4477 24.9477 34 25.5 34H29.5ZM27.5 31C28.0523 31 28.5 31.4477 28.5 32C28.5 32.5523 28.0523 33 27.5 33H25.5C24.9477 33 24.5 32.5523 24.5 32C24.5 31.4477 24.9477 31 25.5 31H27.5Z" fill="#004852"/>
</svg>
