<svg width="34" height="36" viewBox="0 0 34 36" fill="none" xmlns="http://www.w3.org/2000/svg">
<path d="M8.52148 16.5547C8.52148 20.501 11.7295 23.709 15.6758 23.709C17.1436 23.709 18.4883 23.2607 19.6133 22.4961L23.6562 26.5391C23.9023 26.7939 24.2451 26.9082 24.5879 26.9082C25.335 26.9082 25.8711 26.3457 25.8711 25.6162C25.8711 25.2646 25.748 24.9395 25.5107 24.6934L21.4941 20.668C22.3291 19.5166 22.8301 18.0928 22.8301 16.5547C22.8301 12.6084 19.6221 9.40039 15.6758 9.40039C11.7295 9.40039 8.52148 12.6084 8.52148 16.5547ZM10.3848 16.5547C10.3848 13.6367 12.749 11.2637 15.6758 11.2637C18.5938 11.2637 20.9668 13.6367 20.9668 16.5547C20.9668 19.4727 18.5938 21.8457 15.6758 21.8457C12.749 21.8457 10.3848 19.4727 10.3848 16.5547Z" fill="#2791B5"/>
</svg>
