<svg width="16" height="17" viewBox="0 0 16 17" fill="none" xmlns="http://www.w3.org/2000/svg">
<path d="M6.3833 13.377C7.76953 13.377 9.04785 12.9287 10.0938 12.1816L14.0283 16.1162C14.2109 16.2988 14.4517 16.3901 14.709 16.3901C15.2485 16.3901 15.6304 15.9751 15.6304 15.4438C15.6304 15.1948 15.5474 14.9541 15.3647 14.7798L11.4551 10.8618C12.2769 9.78271 12.7666 8.44629 12.7666 6.99365C12.7666 3.48242 9.89453 0.610352 6.3833 0.610352C2.88037 0.610352 0 3.47412 0 6.99365C0 10.5049 2.87207 13.377 6.3833 13.377ZM6.3833 11.999C3.64404 11.999 1.37793 9.73291 1.37793 6.99365C1.37793 4.25439 3.64404 1.98828 6.3833 1.98828C9.12256 1.98828 11.3887 4.25439 11.3887 6.99365C11.3887 9.73291 9.12256 11.999 6.3833 11.999Z" fill="#94A5AB"/>
</svg>
