<svg width="40" height="40" viewBox="0 0 40 40" fill="none" xmlns="http://www.w3.org/2000/svg">
<circle cx="20" cy="20" r="20" fill="#21897E" fill-opacity="0.17"/>
<path d="M13.8677 25.2197C13.8677 26.8384 14.7173 27.7026 16.3286 27.7026H24.1509C25.7549 27.7026 26.6118 26.8384 26.6118 25.2197V14.2114C26.6118 12.5928 25.7549 11.7358 24.1509 11.7358H16.3286C14.7173 11.7358 13.8677 12.5928 13.8677 14.2114V25.2197ZM15.501 25.0806V14.3506C15.501 13.7134 15.8232 13.3618 16.4971 13.3618H23.9824C24.6562 13.3618 24.9785 13.7134 24.9785 14.3506V25.0806C24.9785 25.7251 24.6562 26.0693 23.9824 26.0693H16.4971C15.8232 26.0693 15.501 25.7251 15.501 25.0806ZM17.6396 16.3354H22.8545C23.1255 16.3354 23.3232 16.123 23.3232 15.8594C23.3232 15.5957 23.1255 15.3906 22.8545 15.3906H17.6396C17.354 15.3906 17.1562 15.5957 17.1562 15.8594C17.1562 16.123 17.354 16.3354 17.6396 16.3354ZM17.6396 18.8037H22.8545C23.1255 18.8037 23.3232 18.5913 23.3232 18.3203C23.3232 18.0566 23.1255 17.8516 22.8545 17.8516H17.6396C17.354 17.8516 17.1562 18.0566 17.1562 18.3203C17.1562 18.5913 17.354 18.8037 17.6396 18.8037ZM17.6396 21.2646H20.2031C20.4741 21.2646 20.6719 21.0596 20.6719 20.8032C20.6719 20.5322 20.4741 20.3198 20.2031 20.3198H17.6396C17.354 20.3198 17.1562 20.5322 17.1562 20.8032C17.1562 21.0596 17.354 21.2646 17.6396 21.2646Z" fill="#2B6173"/>
</svg>
