<svg width="10" height="10" viewBox="0 0 10 10" fill="none" xmlns="http://www.w3.org/2000/svg">
<path d="M9.71769 0.290991C9.46759 0.034299 9.09743 -0.0613314 8.75229 0.0393322L0.703998 2.37976C0.339849 2.48093 0.0817435 2.77134 0.0122151 3.14028C-0.058814 3.51575 0.189288 3.99239 0.51342 4.19171L3.02995 5.7384C3.28806 5.89695 3.62119 5.85719 3.83478 5.64177L6.71646 2.74215C6.86152 2.59116 7.10162 2.59116 7.24668 2.74215C7.39174 2.88811 7.39174 3.12467 7.24668 3.27567L4.35999 6.17579C4.14591 6.3907 4.10589 6.72541 4.26346 6.98512L5.80108 9.52688C5.98116 9.82887 6.29129 10 6.63142 10C6.67144 10 6.71646 10 6.75648 9.99497C7.14664 9.94463 7.45676 9.67788 7.57181 9.30039L9.95779 1.2624C10.0628 0.920139 9.96779 0.547684 9.71769 0.290991Z" fill="#2791B5"/>
</svg>
