<svg width="48" height="48" viewBox="0 0 48 48" fill="none" xmlns="http://www.w3.org/2000/svg">
<rect width="48" height="48" rx="24" fill="#2791B5"/>
<g clip-path="url(#clip0_23_2004)">
<path d="M31.9085 16.7647L31.0058 15.8619C30.6914 15.5475 30.6914 15.0378 31.0058 14.7234C31.3202 14.409 31.8299 14.409 32.1443 14.7234L34.9906 17.5697L32.1443 20.416C31.8299 20.7304 31.3202 20.7304 31.0058 20.416C30.6914 20.1016 30.6914 19.5919 31.0058 19.2775L31.9085 18.3748L13.3588 18.3748C12.9142 18.3748 12.5538 18.0143 12.5538 17.5697C12.5538 17.1251 12.9142 16.7647 13.3588 16.7647L31.9085 16.7647Z" fill="white"/>
<path d="M15.3024 29.6748L16.2051 30.5775C16.5195 30.8919 16.5195 31.4016 16.2051 31.716C15.8907 32.0304 15.381 32.0304 15.0666 31.716L12.2203 28.8698L15.0666 26.0235C15.381 25.7091 15.8907 25.7091 16.2051 26.0235C16.5195 26.3379 16.5195 26.8476 16.2051 27.162L15.3024 28.0647L33.8521 28.0647C34.2967 28.0647 34.6571 28.4251 34.6571 28.8697C34.6571 29.3144 34.2967 29.6748 33.8521 29.6748L15.3024 29.6748Z" fill="white"/>
</g>
<defs>
<clipPath id="clip0_23_2004">
<rect width="23" height="19" fill="white" transform="translate(12 14)"/>
</clipPath>
</defs>
</svg>
