<svg width="66" height="66" viewBox="0 0 66 66" fill="none" xmlns="http://www.w3.org/2000/svg">
<mask id="mask0_66_9395" style="mask-type:alpha" maskUnits="userSpaceOnUse" x="0" y="0" width="66" height="66">
<path opacity="0.9" d="M46.0909 0.450351C55.5373 0.771487 63.3067 7.99635 64.3123 17.3945L65.1315 25.0514C65.7088 30.4471 65.7058 35.8893 65.1224 41.2844L64.3286 48.626C63.3134 58.015 55.5478 65.2281 46.1095 65.549L32.8436 66L19.7486 65.5548C10.2365 65.2315 2.43579 57.9109 1.50958 48.4385L0.722181 40.3858C0.241873 35.4736 0.241873 30.5264 0.722182 25.6142L1.50958 17.5615C2.43579 8.08906 10.2365 0.768543 19.7486 0.445173L32.8436 -1.44931e-06L46.0909 0.450351Z" fill="#132F38"/>
</mask>
<g mask="url(#mask0_66_9395)">
<g clip-path="url(#clip0_66_9395)">
<path d="M33.001 75C56.197 75 75.001 56.196 75.001 33C75.001 9.80404 56.197 -9 33.001 -9C9.80502 -9 -8.99902 9.80404 -8.99902 33C-8.99902 56.196 9.80502 75 33.001 75Z" fill="#F0F0F0"/>
<path d="M-0.317416 7.42969C-3.61655 11.7221 -6.10423 16.6694 -7.55273 22.0439H14.2968L-0.317416 7.42969Z" fill="#0052B4"/>
<path d="M73.5533 22.0437C72.1048 16.6694 69.6169 11.7221 66.318 7.42969L51.7041 22.0437H73.5533Z" fill="#0052B4"/>
<path d="M-7.55273 43.957C-6.10406 49.3314 -3.61638 54.2787 -0.317413 58.5709L14.2963 43.957H-7.55273Z" fill="#0052B4"/>
<path d="M58.5711 -0.317251C54.2787 -3.61638 49.3316 -6.10406 43.957 -7.55273V14.2966L58.5711 -0.317251Z" fill="#0052B4"/>
<path d="M7.42969 66.3178C11.7221 69.6169 16.6694 72.1046 22.0437 73.5533V51.7041L7.42969 66.3178Z" fill="#0052B4"/>
<path d="M22.0436 -7.55273C16.6692 -6.10406 11.7219 -3.61638 7.42969 -0.317415L22.0436 14.2964V-7.55273Z" fill="#0052B4"/>
<path d="M43.957 73.5533C49.3314 72.1046 54.2787 69.6169 58.5709 66.318L43.957 51.7041V73.5533Z" fill="#0052B4"/>
<path d="M51.7041 43.957L66.318 58.5711C69.6169 54.2789 72.1048 49.3314 73.5533 43.957H51.7041Z" fill="#0052B4"/>
<path d="M74.6455 27.5218H38.4795H38.4794V-8.64448C36.686 -8.87794 34.8577 -9 33.001 -9C31.144 -9 29.316 -8.87794 27.5228 -8.64448V27.5215V27.5216H-8.6435C-8.87696 29.315 -8.99902 31.1433 -8.99902 33C-8.99902 34.857 -8.87696 36.685 -8.6435 38.4782H27.5224H27.5226V74.6445C29.316 74.8779 31.144 75 33.001 75C34.8577 75 36.686 74.8781 38.4792 74.6445V38.4785V38.4784H74.6455C74.8789 36.685 75.001 34.857 75.001 33C75.001 31.1433 74.8789 29.315 74.6455 27.5218Z" fill="#D80027"/>
<path d="M43.957 43.9572L62.6989 62.699C63.5609 61.8374 64.3831 60.9365 65.1677 60.0027L49.122 43.957H43.957V43.9572Z" fill="#D80027"/>
<path d="M22.0438 43.957H22.0434L3.30176 62.6987C4.16341 63.5607 5.06428 64.383 5.99812 65.1675L22.0438 49.1216V43.957Z" fill="#D80027"/>
<path d="M22.0437 22.0441V22.0438L3.30182 3.30176C2.43984 4.16341 1.61755 5.06428 0.833008 5.99812L16.8788 22.0439H22.0437V22.0441Z" fill="#D80027"/>
<path d="M43.957 22.0438L62.699 3.30166C61.8374 2.43967 60.9365 1.61739 60.0027 0.833008L43.957 16.8788V22.0438Z" fill="#D80027"/>
</g>
</g>
<defs>
<clipPath id="clip0_66_9395">
<rect width="84" height="84" fill="white" transform="translate(-9 -9)"/>
</clipPath>
</defs>
</svg>
