<svg width="66" height="66" viewBox="0 0 66 66" fill="none" xmlns="http://www.w3.org/2000/svg">
<mask id="mask0_66_9446" style="mask-type:alpha" maskUnits="userSpaceOnUse" x="0" y="0" width="66" height="66">
<path d="M46.0909 0.450351C55.5373 0.771487 63.3067 7.99635 64.3123 17.3945L65.1315 25.0514C65.7088 30.4471 65.7058 35.8893 65.1224 41.2844L64.3286 48.626C63.3134 58.015 55.5478 65.2281 46.1095 65.549L32.8436 66L19.7486 65.5548C10.2365 65.2315 2.43579 57.9109 1.50958 48.4385L0.722181 40.3858C0.241873 35.4736 0.241873 30.5264 0.722182 25.6142L1.50958 17.5615C2.43579 8.08906 10.2365 0.768543 19.7486 0.445173L32.8436 -1.44931e-06L46.0909 0.450351Z" fill="#132F38"/>
</mask>
<g mask="url(#mask0_66_9446)">
<g clip-path="url(#clip0_66_9446)">
<path d="M-11 0H77V66H-11V0Z" fill="#000066"/>
<path fill-rule="evenodd" clip-rule="evenodd" d="M30.2221 53.9692L24.2134 54.4917L25.0384 60.4592L20.8996 56.1004L16.7609 60.4592L17.5859 54.4917L11.5771 53.9692L16.7609 50.9029L13.4196 45.8842L19.0571 48.0154L20.8996 42.2817L22.7559 48.0154L28.3934 45.8842L25.0522 50.9029L30.2221 53.9692ZM55.9072 59.4692L54.4496 57.2967L56.8971 58.2179L57.6947 55.7292L58.4921 58.2179L60.9396 57.2967L59.4959 59.4692L61.7509 60.8029L59.1384 61.0367L59.4959 63.6354L57.7084 61.7242L55.8934 63.6354L56.2509 61.0367L53.6384 60.8167L55.9072 59.4692ZM55.8934 20.6804L54.4496 18.5079L56.8971 19.4292L57.6947 16.9404L58.4921 19.4292L60.9396 18.5079L59.4959 20.6804L61.7509 22.0279L59.1384 22.2479L59.4959 24.8467L57.7084 22.9492L55.8934 24.8329L56.2509 22.2479L53.6384 22.0279L55.8934 20.6804ZM41.3596 36.4379L39.9159 34.2654L42.3634 35.1867L43.1609 32.6979L43.9721 35.1867L46.4197 34.2654L44.9622 36.4379L47.2172 37.7717L44.6046 38.0054L44.9759 40.6042L43.1609 38.6929L41.3734 40.6042L41.7171 38.0054L39.1046 37.7854L41.3596 36.4379ZM68.8459 32.5604L67.3746 30.3879L69.8221 31.3092L70.6196 28.8204L71.4309 31.3092L73.8784 30.3879L72.4346 32.5604L74.6759 33.8942L72.0634 34.1279L72.4209 36.7129L70.6334 34.8154L68.8184 36.7129L69.1759 34.1279L66.5634 33.8942L68.8459 32.5604ZM63.5246 44.0004L62.1084 44.8942L62.5071 43.2579L61.2284 42.1854L62.8922 42.0479L63.5246 40.5079L64.1709 42.0617L65.8346 42.1854L64.5559 43.2579L64.9547 44.8942" fill="white"/>
<path d="M-11 0H33V33H-11V0Z" fill="#000066"/>
<path d="M-5.84375 0L10.9312 12.4438L27.6375 0H33V4.2625L16.5 16.5688L33 28.8063V33H27.5L11 20.6938L-5.43125 33H-11V28.875L5.43125 16.6375L-11 4.4V0H-5.84375Z" fill="white"/>
<path d="M18.15 19.3188L33 30.25V33L14.3687 19.3188H18.15ZM5.5 20.6938L5.9125 23.1L-7.2875 33H-11L5.5 20.6938ZM33 0V0.20625L15.8813 13.1313L16.0188 10.1062L29.5625 0H33ZM-11 0L5.43125 12.1H1.30625L-11 2.8875V0Z" fill="#C8102E"/>
<path d="M5.56875 0V33H16.5688V0H5.56875ZM-11 11V22H33V11H-11Z" fill="white"/>
<path d="M-11 13.2688V19.8687H33V13.2688H-11ZM7.76875 0V33H14.3687V0H7.76875Z" fill="#C8102E"/>
<g clip-path="url(#clip1_66_9446)">
<path d="M9.64355 0H56.3463V66H9.64369L9.64355 0Z" fill="white"/>
<path d="M-13.7012 0H9.64371V66H-13.7012V0ZM56.3465 0H79.6913V66H56.3595L56.3465 0ZM16.6434 31.8915L14.8129 32.5102L23.2562 39.9223C23.9008 41.8172 23.0372 42.3714 22.4828 43.377L31.6352 42.2168L31.416 51.4335L33.3238 51.382L32.8984 42.2297L42.0765 43.3254C41.5093 42.1266 41.0066 41.4949 41.5223 39.5871L49.9528 32.5616L48.4832 32.0203C47.2714 31.0922 48.9988 27.5473 49.2566 25.3043C49.2566 25.3043 44.3453 26.9929 44.023 26.1035L42.7598 23.693L38.2868 28.6172C37.7968 28.7332 37.5906 28.5398 37.4747 28.1273L39.5372 17.8406L36.2629 19.684C35.9922 19.8129 35.7214 19.7098 35.541 19.3875L32.3828 13.071L29.1343 19.6325C28.8895 19.8645 28.6446 19.8902 28.4383 19.7357L25.3187 17.9825L27.2008 28.1788C27.0461 28.5913 26.6852 28.6945 26.2727 28.4754L21.9801 23.6156C21.4258 24.518 21.052 25.9746 20.3044 26.3098C19.5696 26.6192 17.0816 25.691 15.4187 25.3301C15.9859 27.3797 17.7649 30.7828 16.6434 31.9043V31.8915Z" fill="#D52B1E"/>
</g>
<g clip-path="url(#clip2_66_9446)">
<path d="M9.64355 0H56.3463V66H9.64369L9.64355 0Z" fill="white"/>
<path d="M-13.7012 0H9.64371V66H-13.7012V0ZM56.3465 0H79.6913V66H56.3595L56.3465 0ZM16.6434 31.8915L14.8129 32.5102L23.2562 39.9223C23.9008 41.8172 23.0372 42.3714 22.4828 43.377L31.6352 42.2168L31.416 51.4335L33.3238 51.382L32.8984 42.2297L42.0765 43.3254C41.5093 42.1266 41.0066 41.4949 41.5223 39.5871L49.9528 32.5616L48.4832 32.0203C47.2714 31.0922 48.9988 27.5473 49.2566 25.3043C49.2566 25.3043 44.3453 26.9929 44.023 26.1035L42.7598 23.693L38.2868 28.6172C37.7968 28.7332 37.5906 28.5398 37.4747 28.1273L39.5372 17.8406L36.2629 19.684C35.9922 19.8129 35.7214 19.7098 35.541 19.3875L32.3828 13.071L29.1343 19.6325C28.8895 19.8645 28.6446 19.8902 28.4383 19.7357L25.3187 17.9825L27.2008 28.1788C27.0461 28.5913 26.6852 28.6945 26.2727 28.4754L21.9801 23.6156C21.4258 24.518 21.052 25.9746 20.3044 26.3098C19.5696 26.6192 17.0816 25.691 15.4187 25.3301C15.9859 27.3797 17.7649 30.7828 16.6434 31.9043V31.8915Z" fill="#D52B1E"/>
</g>
</g>
</g>
<defs>
<clipPath id="clip0_66_9446">
<rect width="88" height="66" fill="white" transform="translate(-11)"/>
</clipPath>
<clipPath id="clip1_66_9446">
<rect width="88" height="66" fill="white" transform="translate(-11)"/>
</clipPath>
<clipPath id="clip2_66_9446">
<rect width="88" height="66" fill="white" transform="translate(-11)"/>
</clipPath>
</defs>
</svg>
