<svg width="66" height="66" viewBox="0 0 66 66" fill="none" xmlns="http://www.w3.org/2000/svg">
<mask id="mask0_66_9699" style="mask-type:alpha" maskUnits="userSpaceOnUse" x="0" y="0" width="66" height="66">
<path opacity="0.9" d="M46.0909 0.450351C55.5373 0.771487 63.3067 7.99635 64.3123 17.3945L65.1315 25.0514C65.7088 30.4471 65.7058 35.8893 65.1224 41.2844L64.3286 48.626C63.3134 58.015 55.5478 65.2281 46.1095 65.549L32.8436 66L19.7486 65.5548C10.2365 65.2315 2.43579 57.9109 1.50958 48.4385L0.722181 40.3858C0.241873 35.4736 0.241873 30.5264 0.722182 25.6142L1.50958 17.5615C2.43579 8.08906 10.2365 0.768543 19.7486 0.445173L32.8436 -1.44931e-06L46.0909 0.450351Z" fill="#132F38"/>
</mask>
<g mask="url(#mask0_66_9699)">
<g clip-path="url(#clip0_66_9699)">
<path d="M35.4995 83C60.0762 83 79.9995 63.0767 79.9995 38.5C79.9995 13.9233 60.0762 -6 35.4995 -6C10.9228 -6 -9.00049 13.9233 -9.00049 38.5C-9.00049 63.0767 10.9228 83 35.4995 83Z" fill="#F0F0F0"/>
<path d="M33.5649 38.5004H79.9996C79.9996 34.4839 79.4643 30.5929 78.4667 26.8916H33.5649V38.5004Z" fill="#D80027"/>
<path d="M33.5649 15.2826H73.4682C70.7442 10.8375 67.2612 6.90842 63.2002 3.67383H33.5649V15.2826Z" fill="#D80027"/>
<path d="M-2.46886 61.7172H73.4683C75.6552 58.1487 77.3513 54.2479 78.4667 50.1084H-7.46729C-6.35183 54.2479 -4.65579 58.1487 -2.46886 61.7172Z" fill="#D80027"/>
<path d="M11.6127 0.949301H15.668L11.8959 3.6897L13.3368 8.12388L9.56488 5.38348L5.79298 8.12388L7.03759 4.29323C3.71643 7.05971 0.805504 10.3009 -1.59332 13.9124H-0.293959L-2.69505 15.6567C-3.06913 16.2808 -3.42791 16.9147 -3.77174 17.5581L-2.62517 21.0869L-4.7643 19.5327C-5.29604 20.6593 -5.78241 21.8113 -6.21959 22.9872L-4.95638 26.8754H-0.293959L-4.06603 29.6158L-2.62517 34.05L-6.39706 31.3096L-8.65648 32.9512C-8.88263 34.7691 -9.00049 36.6207 -9.00049 38.5H35.4995C35.4995 13.9235 35.4995 11.0261 35.4995 -6C26.7087 -6 18.5139 -3.44994 11.6127 0.949301ZM13.3368 34.05L9.56488 31.3096L5.79298 34.05L7.23384 29.6158L3.46177 26.8754H8.12419L9.56488 22.4412L11.0056 26.8754H15.668L11.8959 29.6158L13.3368 34.05ZM11.8959 16.6528L13.3368 21.0869L9.56488 18.3465L5.79298 21.0869L7.23384 16.6528L3.46177 13.9124H8.12419L9.56488 9.47818L11.0056 13.9124H15.668L11.8959 16.6528ZM29.2987 34.05L25.5268 31.3096L21.7549 34.05L23.1958 29.6158L19.4237 26.8754H24.0861L25.5268 22.4412L26.9675 26.8754H31.6299L27.8579 29.6158L29.2987 34.05ZM27.8579 16.6528L29.2987 21.0869L25.5268 18.3465L21.7549 21.0869L23.1958 16.6528L19.4237 13.9124H24.0861L25.5268 9.47818L26.9675 13.9124H31.6299L27.8579 16.6528ZM27.8579 3.6897L29.2987 8.12388L25.5268 5.38348L21.7549 8.12388L23.1958 3.6897L19.4237 0.949301H24.0861L25.5268 -3.48488L26.9675 0.949301H31.6299L27.8579 3.6897Z" fill="#0052B4"/>
</g>
</g>
<defs>
<clipPath id="clip0_66_9699">
<rect width="89" height="89" fill="white" transform="translate(-9 -6)"/>
</clipPath>
</defs>
</svg>
