<svg width="44" height="44" viewBox="0 0 44 44" fill="none" xmlns="http://www.w3.org/2000/svg">
<path d="M29 21.0008H17.14L20.77 16.6408C20.9397 16.4365 21.0214 16.1733 20.997 15.9088C20.9726 15.6444 20.8442 15.4005 20.64 15.2308C20.4358 15.061 20.1725 14.9794 19.9081 15.0037C19.6437 15.0281 19.3997 15.1565 19.23 15.3608L14.23 21.3608C14.1964 21.4085 14.1663 21.4586 14.14 21.5108C14.14 21.5608 14.14 21.5908 14.07 21.6408C14.0247 21.7554 14.0009 21.8775 14 22.0008C14.0009 22.1241 14.0247 22.2461 14.07 22.3608C14.07 22.4108 14.07 22.4408 14.14 22.4908C14.1663 22.5429 14.1964 22.593 14.23 22.6408L19.23 28.6408C19.324 28.7536 19.4418 28.8444 19.5748 28.9066C19.7079 28.9689 19.8531 29.001 20 29.0008C20.2337 29.0012 20.4601 28.9198 20.64 28.7708C20.7413 28.6868 20.825 28.5837 20.8863 28.4674C20.9477 28.351 20.9855 28.2237 20.9975 28.0927C21.0096 27.9618 20.9957 27.8297 20.9567 27.7041C20.9176 27.5785 20.8542 27.4618 20.77 27.3608L17.14 23.0008H29C29.2652 23.0008 29.5196 22.8954 29.7071 22.7079C29.8946 22.5203 30 22.266 30 22.0008C30 21.7355 29.8946 21.4812 29.7071 21.2937C29.5196 21.1061 29.2652 21.0008 29 21.0008Z" fill="white"/>
</svg>
