<svg width="18" height="14" viewBox="0 0 18 14" fill="none" xmlns="http://www.w3.org/2000/svg">
<path d="M6.86026 12.9386H6.86106H6.87106V12.9387L6.87417 12.9386C7.04649 12.9365 7.2165 12.8987 7.37353 12.8277C7.5303 12.7569 7.67076 12.6544 7.7861 12.5267C7.78629 12.5265 7.78648 12.5263 7.78667 12.5261L16.9213 2.53205C17.0405 2.41376 17.1346 2.27264 17.1981 2.11711L16.9666 2.02264L17.1981 2.11711C17.2625 1.95936 17.2939 1.79012 17.2905 1.61977C17.2871 1.44942 17.2489 1.28157 17.1783 1.12652C17.1076 0.971476 17.006 0.832507 16.8797 0.718152C16.7534 0.603797 16.6051 0.51647 16.4438 0.461534C16.2825 0.406598 16.1117 0.385214 15.9419 0.398694C15.772 0.412174 15.6067 0.460235 15.4561 0.539924C15.308 0.618297 15.1772 0.725634 15.0714 0.85553L6.84865 9.85074L2.91337 5.65756C2.68633 5.41561 2.37246 5.27375 2.04083 5.2632C1.70919 5.25265 1.38695 5.37428 1.14499 5.60133C0.903035 5.82837 0.761179 6.14223 0.750633 6.47387C0.740086 6.8055 0.861712 7.12774 1.08876 7.3697L1.08891 7.36986L5.94776 12.5386C5.94797 12.5389 5.94818 12.5391 5.94839 12.5393C6.06481 12.6647 6.20574 12.7648 6.36243 12.8335C6.51941 12.9023 6.68886 12.9381 6.86026 12.9386Z" fill="#83CBE3" stroke="#83CBE3" stroke-width="0.5"/>
</svg>
