<svg width="39" height="44" viewBox="0 0 39 44" fill="none" xmlns="http://www.w3.org/2000/svg">
<g clip-path="url(#clip0_2930_8892)">
<path d="M7.83001 5.78604L8.11183 38.2364L30.1819 38.0235L29.8552 5.60419L7.83001 5.78604ZM26.0123 16.3307L26.0952 16.3066L26.1332 16.3135L26.0123 16.3307L25.4971 16.7865L25.7143 17.533L25.0926 17.0661L24.4945 17.546L24.7092 16.7998L24.1187 16.3778L24.0806 16.3709L24.1567 16.3847L24.8236 16.3887L25.0383 15.6424L25.2935 16.3959L26.0123 16.3307ZM24.9277 20.7668L24.306 20.2999L23.7079 20.7798L23.9226 20.0335L23.339 19.5736L23.415 19.5874L24.0819 19.5914L24.2966 18.8451L24.5518 19.5986L25.2187 19.6025L25.3017 19.5784L25.3397 19.5853L25.2567 19.6094L24.7105 20.0203L24.9277 20.7668ZM23.3365 13.1326L24.0034 13.1365L24.2181 12.3903L24.4733 13.1437L25.1402 13.1477L25.2232 13.1235L25.2612 13.1305L25.1782 13.1546L24.632 13.5654L24.8492 14.3119L24.2655 13.852L23.6674 14.3319L23.8821 13.5856L23.2916 13.1637L23.3365 13.1326ZM21.016 10.7848L21.7209 10.7956L21.9357 10.0494L22.1909 10.8028L22.8958 10.8137L22.9338 10.8206L22.8888 10.8517L22.3357 11.3005L22.5667 11.971L21.9451 11.5041L21.3919 11.953L21.6066 11.2067L21.016 10.7848ZM17.9862 9.95683L18.6531 9.96074L18.8678 9.21451L19.123 9.96797L19.7899 9.97188L19.8729 9.94775L19.9109 9.95469L19.7899 9.97188L19.2437 10.3827L19.4608 11.1292L18.8772 10.6693L18.2791 11.1492L18.4938 10.4029L17.9862 9.95683ZM20.9868 13.0964C21.4187 13.0967 21.8262 13.446 21.9538 13.8227L22.2262 14.6972L22.7411 14.6733C22.7411 14.6733 23.2524 14.8845 23.2418 15.1574C23.2313 15.4304 23.0376 15.6307 22.7957 15.6651C23.1239 15.8035 23.3414 16.1181 23.386 16.519L23.3918 18.2087C23.3881 18.4437 23.2014 18.6059 22.9665 18.6023L22.9728 19.4282C23.0211 19.5941 22.7273 19.6975 22.7273 19.6975L22.0915 19.7386C21.8945 19.7419 21.8013 19.6071 21.791 19.4481L21.7777 18.6603L16.4667 18.7119L16.48 19.4997C16.4902 19.6587 16.3485 19.7899 16.1895 19.8002L15.6366 19.8171C15.6366 19.8171 15.3395 19.7236 15.4053 19.5785L15.3989 18.7526C15.1259 18.7421 14.9187 18.5864 14.9603 18.3584L14.9546 16.6687C14.948 16.2748 15.1624 15.9605 15.4631 15.819C15.2282 15.8154 14.9968 15.5768 15.0004 15.3418C15.011 15.0689 15.4845 14.8411 15.4845 14.8411L15.9994 14.8173L16.2419 13.919C16.3562 13.5079 16.7676 13.1903 17.2065 13.1526L20.9868 13.0964ZM22.6869 23.1461L22.0652 22.6791L21.4671 23.159L21.6819 22.4128L21.1293 21.9978L21.0913 21.9908L21.0533 21.9839L21.1293 21.9978L21.7962 22.0017L22.0109 21.2555L22.2661 22.0089L22.933 22.0128L23.016 21.9887L23.054 21.9956L22.9641 22.0578L22.4559 22.4755L22.6869 23.1461ZM19.6179 24.0389L18.9962 23.572L18.3981 24.0519L18.6128 23.3057L18.0222 22.8837L17.9842 22.8768L18.0602 22.8906L18.7271 22.8945L18.9419 22.1483L19.1971 22.9018L19.864 22.9057L19.9469 22.8816L19.9849 22.8885L19.9089 22.8746L19.3627 23.2854L19.6179 24.0389ZM14.8791 10.8427L15.584 10.8536L15.7988 10.1074L16.054 10.8608L16.7589 10.8717L16.7969 10.8786L16.7519 10.9097L16.1987 11.3585L16.4159 12.105L15.7943 11.6381L15.1961 12.118L15.4109 11.3718L14.8791 10.8427ZM15.0373 22.0247L15.7042 22.0286L15.919 21.2824L16.1741 22.0358L16.841 22.0398L16.924 22.0156L16.962 22.0226L16.7961 22.0708L16.2879 22.4886L16.505 23.2351L15.8834 22.7682L15.3302 23.217L15.545 22.4708L15.0373 22.0247L14.9613 22.0108L14.9233 22.0039L15.0373 22.0247ZM12.6764 13.2289L13.3433 13.2329L13.558 12.4866L13.8132 13.2401L14.4801 13.244L14.563 13.2199L14.5181 13.2509L13.9719 13.6618L14.189 14.4083L13.5674 13.9414L12.9693 14.4213L13.184 13.6751L12.6764 13.2289ZM14.2675 20.8631L13.6459 20.3962L13.0478 20.8761L13.2625 20.1299L12.7099 19.7149L12.6719 19.7079L12.7479 19.7218L13.4148 19.7257L13.6296 18.9795L13.8848 19.7329L14.5517 19.7369L14.6346 19.7127L14.5897 19.7438L14.0124 20.1097L14.2675 20.8631ZM11.8898 16.4627L12.5567 16.4666L12.7714 15.7204L13.0266 16.4739L13.6935 16.4778L13.7764 16.4536L13.8144 16.4606L13.7315 16.4847L13.1853 16.8955L13.4024 17.6421L12.7808 17.1751L12.1826 17.655L12.3974 16.9088L11.8898 16.4627ZM27.0196 33.8333L11.1694 33.9641L11.1183 27.7892L26.9686 27.6584L27.0196 33.8333Z" fill="url(#paint0_linear_2930_8892)"/>
<path d="M16.1713 16.4587C15.8983 16.4482 15.6597 16.6795 15.6872 16.9594C15.6766 17.2324 15.908 17.471 16.1879 17.4435C16.4609 17.4541 16.6994 17.2227 16.672 16.9428C16.6825 16.6699 16.4443 16.4693 16.1713 16.4587Z" fill="url(#paint1_linear_2930_8892)"/>
<path d="M22.0081 15.2465L21.622 13.9193C21.5186 13.6255 21.2043 13.4111 20.8933 13.3936L17.234 13.4325C16.923 13.415 16.6014 13.6705 16.5459 13.9746L16.1891 15.2839L22.0081 15.2465Z" fill="url(#paint2_linear_2930_8892)"/>
<path d="M17.8493 18.0218L20.4478 17.9856C20.4478 17.9856 20.4448 17.3567 20.4517 17.3187L17.8532 17.3549L17.8493 18.0218Z" fill="url(#paint3_linear_2930_8892)"/>
<path d="M21.551 16.8909C21.5404 17.1639 21.7718 17.4024 22.0517 17.375C22.3247 17.3855 22.5633 17.1542 22.5358 16.8743C22.5464 16.6013 22.315 16.3627 22.0351 16.3902C21.7552 16.4176 21.5615 16.6179 21.551 16.8909Z" fill="url(#paint4_linear_2930_8892)"/>
<g filter="url(#filter0_d_2930_8892)">
<rect x="10.8584" y="27.248" width="16.4437" height="7.19397" rx="1.5" transform="rotate(-0.614006 10.8584 27.248)" fill="#CEEBF5"/>
</g>
</g>
<defs>
<filter id="filter0_d_2930_8892" x="10.874" y="27.0878" width="17.2383" height="8.08789" filterUnits="userSpaceOnUse" color-interpolation-filters="sRGB">
<feFlood flood-opacity="0" result="BackgroundImageFix"/>
<feColorMatrix in="SourceAlpha" type="matrix" values="0 0 0 0 0 0 0 0 0 0 0 0 0 0 0 0 0 0 127 0" result="hardAlpha"/>
<feOffset dx="0.375" dy="0.375"/>
<feGaussianBlur stdDeviation="0.1875"/>
<feComposite in2="hardAlpha" operator="out"/>
<feColorMatrix type="matrix" values="0 0 0 0 0.55 0 0 0 0 0.55 0 0 0 0 0.55 0 0 0 0.25 0"/>
<feBlend mode="normal" in2="BackgroundImageFix" result="effect1_dropShadow_2930_8892"/>
<feBlend mode="normal" in="SourceGraphic" in2="effect1_dropShadow_2930_8892" result="shape"/>
</filter>
<linearGradient id="paint0_linear_2930_8892" x1="22.2351" y1="4.21332" x2="15.7699" y2="39.6342" gradientUnits="userSpaceOnUse">
<stop stop-color="#3DACBC"/>
<stop offset="1" stop-color="#295A6B"/>
</linearGradient>
<linearGradient id="paint1_linear_2930_8892" x1="16.2673" y1="16.4703" x2="16.0898" y2="17.4431" gradientUnits="userSpaceOnUse">
<stop stop-color="#186A5D"/>
<stop offset="0.479167" stop-color="#4CA0BC"/>
<stop offset="1" stop-color="#186A5D"/>
</linearGradient>
<linearGradient id="paint2_linear_2930_8892" x1="19.4882" y1="13.1311" x2="19.0015" y2="15.7973" gradientUnits="userSpaceOnUse">
<stop stop-color="#186A5D"/>
<stop offset="0.479167" stop-color="#4CA0BC"/>
<stop offset="1" stop-color="#186A5D"/>
</linearGradient>
<linearGradient id="paint3_linear_2930_8892" x1="19.2545" y1="17.1002" x2="19.0464" y2="18.2403" gradientUnits="userSpaceOnUse">
<stop stop-color="#186A5D"/>
<stop offset="0.479167" stop-color="#4CA0BC"/>
<stop offset="1" stop-color="#186A5D"/>
</linearGradient>
<linearGradient id="paint4_linear_2930_8892" x1="22.1387" y1="16.3916" x2="21.9592" y2="17.3755" gradientUnits="userSpaceOnUse">
<stop stop-color="#186A5D"/>
<stop offset="0.479167" stop-color="#4CA0BC"/>
<stop offset="1" stop-color="#186A5D"/>
</linearGradient>
<clipPath id="clip0_2930_8892">
<rect width="28.3" height="38.6331" fill="white" transform="translate(8.96777 0.456665) rotate(10.3441)"/>
</clipPath>
</defs>
</svg>
