<svg width="40" height="24" viewBox="0 0 40 24" fill="none" xmlns="http://www.w3.org/2000/svg">
<g filter="url(#filter0_d_2930_8877)">
<rect x="12.8545" y="1.35413" width="14.2917" height="1.16667" rx="0.583333" fill="#CEEBF5"/>
</g>
<g filter="url(#filter1_d_2930_8877)">
<rect x="12.8545" y="2.52087" width="14.2917" height="1.16667" rx="0.583333" fill="#CEEBF5"/>
</g>
<path d="M34 4.67537C34 4.12967 33.5575 3.6875 33.0118 3.6875H6.98817C6.44246 3.6875 6 4.12967 6 4.67537V20.4916C6 21.0367 6.44246 21.4792 6.98817 21.4792H33.0121C33.5575 21.4792 34 21.0367 34 20.4913V4.67537ZM16.2083 15.9375H8.33333C8.07229 14.9047 8.73875 14.3351 9.81879 14.086C10.8761 13.8427 11.6201 13.3627 10.9583 12.7006C9.02342 10.7654 10.4698 8.41046 12.263 8.41046C14.0561 8.41046 15.5182 10.7657 13.5833 12.7006C12.9215 13.3627 13.6501 13.8427 14.7068 14.086C15.7872 14.3351 16.4697 14.9047 16.2083 15.9375ZM31.6667 15.9375H17.9583V14.7708H31.6667V15.9375ZM31.6667 13.0208H17.9583V11.8542H31.6667V13.0208ZM31.6667 10.1042H17.9583V8.9375H31.6667V10.1042Z" fill="url(#paint0_linear_2930_8877)"/>
<g filter="url(#filter2_d_2930_8877)">
<rect x="12.8545" y="21.4791" width="14.2917" height="1.16667" rx="0.583333" fill="#CEEBF5"/>
</g>
<defs>
<filter id="filter0_d_2930_8877" x="12.8545" y="1.35413" width="14.8753" height="1.74996" filterUnits="userSpaceOnUse" color-interpolation-filters="sRGB">
<feFlood flood-opacity="0" result="BackgroundImageFix"/>
<feColorMatrix in="SourceAlpha" type="matrix" values="0 0 0 0 0 0 0 0 0 0 0 0 0 0 0 0 0 0 127 0" result="hardAlpha"/>
<feOffset dx="0.291667" dy="0.291667"/>
<feGaussianBlur stdDeviation="0.145833"/>
<feComposite in2="hardAlpha" operator="out"/>
<feColorMatrix type="matrix" values="0 0 0 0 0.55 0 0 0 0 0.55 0 0 0 0 0.55 0 0 0 0.25 0"/>
<feBlend mode="normal" in2="BackgroundImageFix" result="effect1_dropShadow_2930_8877"/>
<feBlend mode="normal" in="SourceGraphic" in2="effect1_dropShadow_2930_8877" result="shape"/>
</filter>
<filter id="filter1_d_2930_8877" x="12.8545" y="2.52087" width="14.8753" height="1.74996" filterUnits="userSpaceOnUse" color-interpolation-filters="sRGB">
<feFlood flood-opacity="0" result="BackgroundImageFix"/>
<feColorMatrix in="SourceAlpha" type="matrix" values="0 0 0 0 0 0 0 0 0 0 0 0 0 0 0 0 0 0 127 0" result="hardAlpha"/>
<feOffset dx="0.291667" dy="0.291667"/>
<feGaussianBlur stdDeviation="0.145833"/>
<feComposite in2="hardAlpha" operator="out"/>
<feColorMatrix type="matrix" values="0 0 0 0 0.55 0 0 0 0 0.55 0 0 0 0 0.55 0 0 0 0.25 0"/>
<feBlend mode="normal" in2="BackgroundImageFix" result="effect1_dropShadow_2930_8877"/>
<feBlend mode="normal" in="SourceGraphic" in2="effect1_dropShadow_2930_8877" result="shape"/>
</filter>
<filter id="filter2_d_2930_8877" x="12.8545" y="21.4791" width="14.8753" height="1.74996" filterUnits="userSpaceOnUse" color-interpolation-filters="sRGB">
<feFlood flood-opacity="0" result="BackgroundImageFix"/>
<feColorMatrix in="SourceAlpha" type="matrix" values="0 0 0 0 0 0 0 0 0 0 0 0 0 0 0 0 0 0 127 0" result="hardAlpha"/>
<feOffset dx="0.291667" dy="0.291667"/>
<feGaussianBlur stdDeviation="0.145833"/>
<feComposite in2="hardAlpha" operator="out"/>
<feColorMatrix type="matrix" values="0 0 0 0 0.55 0 0 0 0 0.55 0 0 0 0 0.55 0 0 0 0.25 0"/>
<feBlend mode="normal" in2="BackgroundImageFix" result="effect1_dropShadow_2930_8877"/>
<feBlend mode="normal" in="SourceGraphic" in2="effect1_dropShadow_2930_8877" result="shape"/>
</filter>
<linearGradient id="paint0_linear_2930_8877" x1="20" y1="3.6875" x2="20" y2="21.4792" gradientUnits="userSpaceOnUse">
<stop stop-color="#3DACBC"/>
<stop offset="1" stop-color="#295A6B"/>
</linearGradient>
</defs>
</svg>
