<svg width="16" height="14" viewBox="0 0 16 14" fill="none" xmlns="http://www.w3.org/2000/svg">
<path d="M15 6.00064H3.14L6.77 1.64064C6.93974 1.43642 7.0214 1.17314 6.99702 0.908718C6.97264 0.644292 6.84422 0.40038 6.64 0.230642C6.43578 0.0609033 6.1725 -0.0207586 5.90808 0.00362115C5.64365 0.0280009 5.39974 0.156425 5.23 0.360642L0.23 6.36064C0.196361 6.40837 0.166279 6.4585 0.14 6.51064C0.14 6.56064 0.14 6.59064 0.0700002 6.64064C0.0246737 6.7553 0.000941121 6.87735 0 7.00064C0.000941121 7.12393 0.0246737 7.24598 0.0700002 7.36064C0.0700002 7.41064 0.0699999 7.44064 0.14 7.49064C0.166279 7.54278 0.196361 7.59292 0.23 7.64064L5.23 13.6406C5.32402 13.7535 5.44176 13.8443 5.57485 13.9065C5.70793 13.9687 5.85309 14.0009 6 14.0006C6.23365 14.0011 6.46009 13.9197 6.64 13.7706C6.74126 13.6867 6.82496 13.5836 6.88631 13.4672C6.94766 13.3509 6.98546 13.2236 6.99754 13.0926C7.00961 12.9616 6.99573 12.8296 6.95669 12.704C6.91764 12.5784 6.8542 12.4617 6.77 12.3606L3.14 8.00064H15C15.2652 8.00064 15.5196 7.89528 15.7071 7.70775C15.8946 7.52021 16 7.26586 16 7.00064C16 6.73543 15.8946 6.48107 15.7071 6.29354C15.5196 6.106 15.2652 6.00064 15 6.00064Z" fill="white"/>
</svg>
