<svg width="129" height="122" viewBox="0 0 129 122" fill="none" xmlns="http://www.w3.org/2000/svg">
<path d="M31.5994 19.9468C31.9205 10.5005 39.1454 2.73103 48.5435 1.72547L56.5532 0.868476C61.949 0.291158 67.3911 0.294203 72.7862 0.87756L80.477 1.70914C89.866 2.72434 97.0791 10.4899 97.4 19.9282L97.8621 33.5202L97.4058 46.9413C97.0824 56.4534 89.7619 64.254 80.2895 65.1802L71.8858 66.002C66.9736 66.4823 62.0264 66.4823 57.1142 66.002L48.7105 65.1802C39.2381 64.254 31.9176 56.4534 31.5942 46.9413L31.1379 33.5202L31.5994 19.9468Z" fill="#132F38"/>
<path fill-rule="evenodd" clip-rule="evenodd" d="M71.8653 48.23C69.9851 49.0254 67.729 49.4231 65.0968 49.4231C62.6237 49.4231 60.4615 49.0616 58.6103 48.3384C56.7736 47.6008 55.3273 46.5523 54.2715 45.1928C53.2158 43.8189 52.6228 42.1701 52.4926 40.2466L52.4709 39.8995H58.6537L58.6971 40.1381C58.8417 40.9481 59.2033 41.6495 59.7818 42.2425C60.3747 42.821 61.1413 43.2765 62.0813 43.6092C63.0214 43.9273 64.0844 44.0864 65.2703 44.0864C66.4852 44.0864 67.5265 43.9273 68.3942 43.6092C69.2765 43.2765 69.9562 42.8137 70.4335 42.2208C70.9252 41.6133 71.1711 40.9119 71.1711 40.1165V40.0948C71.1711 39.039 70.7516 38.2146 69.9128 37.6217C69.0884 37.0142 67.7 36.508 65.7476 36.1031L62.4501 35.4523C59.6513 34.8872 57.4792 33.97 55.9339 32.7006H73.972C74.5222 33.0321 75.0059 33.3925 75.4231 33.7818C76.9561 35.1847 77.7226 37.1155 77.7226 39.5741V39.5958C77.7226 41.6061 77.2164 43.3488 76.204 44.824C75.2061 46.2847 73.7599 47.4201 71.8653 48.23ZM53.2955 28.2734C53.1941 27.7302 53.1435 27.1583 53.1435 26.5578V26.5361C53.1435 24.627 53.6569 22.9638 54.6837 21.5465C55.7106 20.1147 57.1207 19.0083 58.914 18.2273C60.7074 17.4319 62.7611 17.0342 65.0751 17.0342C67.4903 17.0342 69.5729 17.4102 71.3229 18.1623C73.0874 18.9143 74.4613 19.9773 75.4448 21.3513C76.4282 22.7252 76.9706 24.3233 77.0718 26.1456L77.0935 26.5578L70.9107 26.5578L70.889 26.2975C70.7733 25.4731 70.4624 24.7717 69.9562 24.1932C69.45 23.6002 68.7775 23.1446 67.9387 22.8264C67.1143 22.5083 66.1598 22.3492 65.0751 22.3492C63.9615 22.3492 62.9997 22.5155 62.1898 22.8481C61.3799 23.1663 60.758 23.6074 60.3241 24.1715C59.9047 24.7355 59.695 25.3935 59.695 26.1456V26.1673C59.695 27.0061 60.0001 27.7082 60.6104 28.2734H53.2955Z" fill="white"/>
<path d="M10.8284 98.5913C10.4895 98.0999 10.0319 97.744 9.45576 97.5237C8.89655 97.2865 8.30345 97.1679 7.67645 97.1679C7.30365 97.1679 6.93931 97.2102 6.58345 97.295C6.24453 97.3797 5.93104 97.5153 5.64296 97.7017C5.37182 97.8881 5.15153 98.1338 4.98207 98.4388C4.81261 98.7269 4.72788 99.0743 4.72788 99.481C4.72788 100.091 4.9397 100.557 5.36335 100.879C5.787 101.201 6.31232 101.481 6.93931 101.718C7.56631 101.955 8.25261 102.184 8.99823 102.404C9.74384 102.624 10.4301 102.929 11.0571 103.319C11.6841 103.709 12.2095 104.226 12.6331 104.87C13.0567 105.514 13.2686 106.369 13.2686 107.437C13.2686 108.403 13.0906 109.25 12.7348 109.979C12.3789 110.691 11.896 111.284 11.2859 111.758C10.6928 112.233 9.99803 112.589 9.20158 112.826C8.40512 113.063 7.56631 113.182 6.68512 113.182C5.5667 113.182 4.49064 112.995 3.45695 112.622C2.42325 112.25 1.5336 111.623 0.78798 110.741L3.20276 108.403C3.59251 108.996 4.10089 109.462 4.72788 109.801C5.37182 110.123 6.04966 110.284 6.76138 110.284C7.13419 110.284 7.507 110.233 7.8798 110.131C8.25261 110.03 8.59153 109.877 8.89655 109.674C9.20158 109.471 9.44729 109.216 9.6337 108.911C9.8201 108.589 9.9133 108.225 9.9133 107.818C9.9133 107.157 9.70148 106.649 9.27783 106.293C8.85419 105.937 8.32887 105.641 7.70187 105.404C7.07488 105.149 6.38857 104.912 5.64296 104.692C4.89734 104.472 4.21103 104.175 3.58404 103.802C2.95704 103.412 2.43172 102.904 2.00808 102.277C1.58443 101.633 1.37261 100.777 1.37261 99.7097C1.37261 98.7777 1.55901 97.9728 1.93182 97.295C2.32158 96.6171 2.82148 96.0579 3.43153 95.6173C4.05852 95.1598 4.77025 94.8209 5.5667 94.6006C6.36315 94.3803 7.17655 94.2701 8.0069 94.2701C8.95586 94.2701 9.87094 94.4142 10.7521 94.7022C11.6502 94.9903 12.4552 95.4648 13.1669 96.1257L10.8284 98.5913ZM16.1973 100.523H19.095V102.43H19.1459C19.417 101.853 19.8491 101.345 20.4422 100.904C21.0523 100.447 21.8657 100.218 22.8824 100.218C24.7973 100.218 26.0682 100.972 26.6952 102.48C27.1358 101.701 27.6865 101.133 28.3474 100.777C29.0083 100.405 29.7963 100.218 30.7114 100.218C31.5248 100.218 32.2111 100.354 32.7703 100.625C33.3295 100.896 33.7786 101.269 34.1175 101.743C34.4733 102.218 34.7275 102.777 34.88 103.421C35.0326 104.048 35.1088 104.726 35.1088 105.454V112.724H32.0586V105.81C32.0586 105.437 32.0247 105.082 31.9569 104.743C31.8891 104.387 31.7705 104.082 31.601 103.828C31.4316 103.556 31.2028 103.345 30.9147 103.192C30.6266 103.04 30.2538 102.963 29.7963 102.963C29.3218 102.963 28.9151 103.057 28.5762 103.243C28.2542 103.412 27.9831 103.65 27.7628 103.955C27.5595 104.243 27.4069 104.582 27.3053 104.971C27.2205 105.344 27.1782 105.725 27.1782 106.115V112.724H24.1279V105.454C24.1279 104.692 23.9669 104.09 23.645 103.65C23.323 103.192 22.7892 102.963 22.0436 102.963C21.5352 102.963 21.1031 103.048 20.7472 103.218C20.4083 103.387 20.1202 103.616 19.883 103.904C19.6627 104.192 19.5017 104.522 19.4 104.895C19.2984 105.268 19.2475 105.658 19.2475 106.064V112.724H16.1973V100.523ZM46.0673 111.046H45.991C45.5504 111.741 44.9912 112.25 44.3134 112.572C43.6355 112.877 42.8899 113.029 42.0765 113.029C41.5173 113.029 40.9666 112.953 40.4243 112.8C39.899 112.648 39.4245 112.419 39.0009 112.114C38.5942 111.809 38.2637 111.428 38.0095 110.97C37.7553 110.513 37.6282 109.979 37.6282 109.369C37.6282 108.708 37.7469 108.149 37.9841 107.691C38.2214 107.217 38.5348 106.827 38.9246 106.522C39.3313 106.2 39.7973 105.946 40.3226 105.759C40.848 105.573 41.3902 105.437 41.9494 105.353C42.5256 105.251 43.1017 105.192 43.6779 105.175C44.2541 105.141 44.7963 105.124 45.3047 105.124H46.0673V104.793C46.0673 104.031 45.8046 103.463 45.2793 103.09C44.754 102.701 44.0846 102.506 43.2712 102.506C42.6273 102.506 42.0257 102.624 41.4665 102.862C40.9073 103.082 40.4243 103.387 40.0176 103.777L38.4162 102.175C39.0941 101.481 39.882 100.981 40.7802 100.676C41.6952 100.371 42.6357 100.218 43.6016 100.218C44.4659 100.218 45.1946 100.32 45.7877 100.523C46.3808 100.71 46.8722 100.955 47.2619 101.26C47.6517 101.565 47.9482 101.921 48.1516 102.328C48.3719 102.718 48.5244 103.116 48.6091 103.523C48.7108 103.929 48.7701 104.327 48.7871 104.717C48.804 105.09 48.8125 105.42 48.8125 105.709V112.724H46.0673V111.046ZM45.8893 107.259H45.2539C44.8302 107.259 44.3557 107.276 43.8304 107.31C43.3051 107.344 42.8052 107.429 42.3307 107.564C41.8732 107.683 41.4834 107.869 41.1614 108.123C40.8395 108.361 40.6785 108.699 40.6785 109.14C40.6785 109.428 40.7378 109.674 40.8564 109.877C40.992 110.064 41.1614 110.225 41.3648 110.36C41.5681 110.496 41.7969 110.597 42.0511 110.665C42.3053 110.716 42.5595 110.741 42.8137 110.741C43.8643 110.741 44.6353 110.496 45.1268 110.004C45.6351 109.496 45.8893 108.81 45.8893 107.945V107.259ZM52.0943 100.523H55.1445V102.455H55.1954C55.5343 101.743 56.0172 101.192 56.6442 100.803C57.2712 100.413 57.9914 100.218 58.8048 100.218C58.9912 100.218 59.1692 100.235 59.3386 100.269C59.525 100.303 59.7114 100.345 59.8978 100.396V103.345C59.6436 103.277 59.3894 103.226 59.1353 103.192C58.898 103.141 58.6608 103.116 58.4235 103.116C57.7118 103.116 57.1357 103.251 56.6951 103.523C56.2714 103.777 55.941 104.073 55.7037 104.412C55.4834 104.751 55.3309 105.09 55.2462 105.429C55.1784 105.768 55.1445 106.022 55.1445 106.192V112.724H52.0943V100.523ZM60.5504 103.116V100.523H63.0668V96.9899H66.1171V100.523H69.4723V103.116H66.1171V108.454C66.1171 109.064 66.2272 109.547 66.4475 109.903C66.6848 110.259 67.1423 110.436 67.8201 110.436C68.0913 110.436 68.3878 110.411 68.7098 110.36C69.0318 110.292 69.2859 110.191 69.4723 110.055V112.622C69.1504 112.775 68.7521 112.877 68.2777 112.927C67.8201 112.995 67.4134 113.029 67.0576 113.029C66.2442 113.029 65.5748 112.936 65.0495 112.75C64.5411 112.58 64.1344 112.317 63.8294 111.962C63.5413 111.589 63.338 111.131 63.2193 110.589C63.1177 110.047 63.0668 109.42 63.0668 108.708V103.116H60.5504ZM72.133 94.7277H79.1485C79.8264 94.7277 80.4957 94.8124 81.1566 94.9819C81.8175 95.1344 82.4021 95.397 82.9105 95.7698C83.4358 96.1257 83.8595 96.5917 84.1814 97.1679C84.5034 97.744 84.6644 98.4388 84.6644 99.2522C84.6644 100.269 84.3763 101.108 83.8002 101.769C83.224 102.43 82.4699 102.904 81.5379 103.192V103.243C82.0971 103.311 82.614 103.472 83.0884 103.726C83.5799 103.963 83.995 104.277 84.334 104.666C84.6729 105.039 84.9355 105.48 85.1219 105.988C85.3253 106.48 85.427 107.013 85.427 107.59C85.427 108.572 85.2321 109.394 84.8423 110.055C84.4526 110.699 83.9357 111.224 83.2918 111.631C82.6648 112.021 81.9361 112.3 81.1058 112.47C80.2924 112.639 79.462 112.724 78.6147 112.724H72.133V94.7277ZM75.3357 102.048H78.2589C79.3265 102.048 80.1229 101.845 80.6482 101.438C81.1905 101.015 81.4616 100.464 81.4616 99.786C81.4616 99.0065 81.182 98.4303 80.6228 98.0575C80.0806 97.6678 79.1994 97.4729 77.9793 97.4729H75.3357V102.048ZM75.3357 109.979H78.2843C78.691 109.979 79.1231 109.953 79.5806 109.903C80.0551 109.852 80.4873 109.733 80.877 109.547C81.2668 109.36 81.5887 109.098 81.8429 108.759C82.0971 108.403 82.2242 107.928 82.2242 107.335C82.2242 106.386 81.9107 105.725 81.2837 105.353C80.6737 104.98 79.7162 104.793 78.4114 104.793H75.3357V109.979ZM95.9614 111.046H95.8852C95.4446 111.741 94.8854 112.25 94.2075 112.572C93.5297 112.877 92.7841 113.029 91.9707 113.029C91.4115 113.029 90.8607 112.953 90.3185 112.8C89.7932 112.648 89.3187 112.419 88.895 112.114C88.4883 111.809 88.1579 111.428 87.9037 110.97C87.6495 110.513 87.5224 109.979 87.5224 109.369C87.5224 108.708 87.641 108.149 87.8783 107.691C88.1155 107.217 88.429 106.827 88.8188 106.522C89.2255 106.2 89.6915 105.946 90.2168 105.759C90.7421 105.573 91.2844 105.437 91.8436 105.353C92.4198 105.251 92.9959 105.192 93.5721 105.175C94.1482 105.141 94.6905 105.124 95.1989 105.124H95.9614V104.793C95.9614 104.031 95.6988 103.463 95.1734 103.09C94.6481 102.701 93.9788 102.506 93.1654 102.506C92.5214 102.506 91.9199 102.624 91.3606 102.862C90.8014 103.082 90.3185 103.387 89.9118 103.777L88.3104 102.175C88.9882 101.481 89.7762 100.981 90.6743 100.676C91.5894 100.371 92.5299 100.218 93.4958 100.218C94.36 100.218 95.0887 100.32 95.6818 100.523C96.2749 100.71 96.7664 100.955 97.1561 101.26C97.5459 101.565 97.8424 101.921 98.0458 102.328C98.2661 102.718 98.4186 103.116 98.5033 103.523C98.605 103.929 98.6643 104.327 98.6812 104.717C98.6982 105.09 98.7066 105.42 98.7066 105.709V112.724H95.9614V111.046ZM95.7835 107.259H95.148C94.7244 107.259 94.2499 107.276 93.7246 107.31C93.1993 107.344 92.6994 107.429 92.2249 107.564C91.7673 107.683 91.3776 107.869 91.0556 108.123C90.7336 108.361 90.5727 108.699 90.5727 109.14C90.5727 109.428 90.632 109.674 90.7506 109.877C90.8862 110.064 91.0556 110.225 91.259 110.36C91.4623 110.496 91.6911 110.597 91.9453 110.665C92.1995 110.716 92.4536 110.741 92.7078 110.741C93.7585 110.741 94.5295 110.496 95.0209 110.004C95.5293 109.496 95.7835 108.81 95.7835 107.945V107.259ZM101.988 100.523H104.886V102.48H104.937C105.225 101.87 105.666 101.345 106.259 100.904C106.852 100.447 107.657 100.218 108.674 100.218C109.487 100.218 110.173 100.354 110.732 100.625C111.309 100.896 111.775 101.252 112.131 101.692C112.486 102.133 112.741 102.641 112.893 103.218C113.046 103.794 113.122 104.395 113.122 105.022V112.724H110.072V106.547C110.072 106.208 110.055 105.836 110.021 105.429C109.987 105.005 109.894 104.616 109.741 104.26C109.606 103.887 109.385 103.582 109.08 103.345C108.775 103.09 108.36 102.963 107.835 102.963C107.326 102.963 106.894 103.048 106.538 103.218C106.199 103.387 105.911 103.616 105.674 103.904C105.454 104.192 105.293 104.522 105.191 104.895C105.09 105.268 105.039 105.658 105.039 106.064V112.724H101.988V100.523ZM116.584 93.5076H119.635V105.581L124.337 100.523H128.252L123.015 106.064L128.582 112.724H124.54L119.685 106.497H119.635V112.724H116.584V93.5076Z" fill="#132F38"/>
</svg>
