<svg width="40" height="48" viewBox="0 0 40 48" fill="none" xmlns="http://www.w3.org/2000/svg">
<path d="M10.4194 8.74194C9.63303 8.74194 9 9.37498 9 10.1613V37.8387C9 38.625 9.63303 39.2581 10.4194 39.2581H29.5806C30.367 39.2581 31 38.625 31 37.8387V10.1613C31 9.37498 30.367 8.74194 29.5806 8.74194H10.4194ZM20 11.2258C24.6949 11.2258 28.5161 15.047 28.5161 19.7419C28.5161 24.3466 24.8367 28.1038 20.2661 28.247C20.1772 28.2559 20.0913 28.258 20 28.258C19.9087 28.258 19.8228 28.2545 19.7339 28.247C15.1633 28.1038 11.4839 24.3466 11.4839 19.7419C11.4839 15.047 15.305 11.2258 20 11.2258ZM19.2903 12.8559C18.7993 13.1274 18.3014 13.6694 17.871 14.5302C17.8326 14.6069 17.7968 14.6934 17.7601 14.7742H19.2903V12.8559ZM20.7097 12.8559V14.7742H22.2399C22.2032 14.6934 22.1674 14.6069 22.129 14.5302C21.6986 13.6694 21.2007 13.1274 20.7097 12.8559ZM16.8952 13.377C16.1651 13.7328 15.495 14.2015 14.9325 14.7742H16.2298C16.3452 14.4718 16.4707 14.1706 16.6069 13.8982C16.6972 13.7176 16.7943 13.5452 16.8952 13.377ZM23.1048 13.377C23.2057 13.5452 23.3028 13.7176 23.3931 13.8982C23.5293 14.1706 23.6548 14.4718 23.7702 14.7742H25.0675C24.505 14.2015 23.8348 13.7328 23.1048 13.377ZM13.8569 16.1936C13.5999 16.6379 13.3926 17.1139 13.2359 17.6129H15.5312C15.5974 17.1208 15.6876 16.6481 15.7974 16.1936H13.8569ZM17.25 16.1936C17.1303 16.6361 17.0358 17.1158 16.9617 17.6129H19.2903V16.1936H17.25ZM20.7097 16.1936V17.6129H23.0383C22.9642 17.1158 22.8697 16.6361 22.75 16.1936H20.7097ZM24.2026 16.1936C24.3124 16.6481 24.4026 17.1208 24.4688 17.6129H26.7641C26.6074 17.1139 26.4001 16.6379 26.1431 16.1936H24.2026ZM12.9365 19.0323C12.9131 19.2676 12.9032 19.5003 12.9032 19.7419C12.9032 19.98 12.9138 20.2197 12.9365 20.4516H15.4093C15.3993 20.2196 15.3873 19.979 15.3873 19.7419C15.3873 19.5018 15.3993 19.2675 15.4093 19.0323H12.9365ZM16.8286 19.0323C16.8173 19.2687 16.8066 19.4996 16.8066 19.7419C16.8066 19.9808 16.818 20.2188 16.8286 20.4516H19.2903V19.0323H16.8286ZM20.7097 19.0323V20.4516H23.1714C23.1824 20.2188 23.1934 19.9808 23.1934 19.7419C23.1934 19.4996 23.1824 19.2687 23.1714 19.0323H20.7097ZM24.5907 19.0323C24.6007 19.2675 24.6127 19.5018 24.6127 19.7419C24.6127 19.979 24.6003 20.2196 24.5907 20.4516H27.0635C27.0862 20.2197 27.0968 19.98 27.0968 19.7419C27.0968 19.5003 27.0869 19.2676 27.0635 19.0323H24.5907ZM13.2248 21.871C13.3804 22.37 13.5899 22.8457 13.8457 23.2903H15.7974C15.6873 22.8358 15.5974 22.3635 15.5312 21.871H13.2248ZM16.9617 21.871C17.036 22.3706 17.1295 22.846 17.25 23.2903H19.2903V21.871H16.9617ZM20.7097 21.871V23.2903H22.75C22.8705 22.846 22.964 22.3706 23.0383 21.871H20.7097ZM24.4688 21.871C24.4026 22.3635 24.3127 22.8358 24.2026 23.2903H26.1543C26.4101 22.8457 26.6196 22.37 26.7752 21.871H24.4688ZM14.9214 24.7097C15.4898 25.2908 16.1662 25.7702 16.9062 26.129C16.8007 25.9541 16.701 25.7628 16.6069 25.5746C16.4707 25.3022 16.3452 25.0115 16.2298 24.7097H14.9214ZM17.7601 24.7097C17.7961 24.7887 17.8334 24.8674 17.871 24.9425C18.3014 25.8033 18.7993 26.3643 19.2903 26.6391V24.7097H17.7601ZM20.7097 24.7097V26.6391C21.2007 26.3643 21.6986 25.8033 22.129 24.9425C22.1666 24.8674 22.2039 24.7887 22.2399 24.7097H20.7097ZM23.7702 24.7097C23.6548 25.0115 23.5293 25.3022 23.3931 25.5746C23.299 25.7628 23.1993 25.9541 23.0938 26.129C23.8339 25.7702 24.5102 25.2908 25.0786 24.7097H23.7702ZM12.9032 31.0968H27.0968C27.4887 31.0968 27.8065 31.4145 27.8065 31.8065C27.8065 32.1984 27.4887 32.5161 27.0968 32.5161H12.9032C12.5113 32.5161 12.1935 32.1984 12.1935 31.8065C12.1935 31.4145 12.5113 31.0968 12.9032 31.0968ZM12.9032 35H27.0968C27.4887 35 27.8065 35.3177 27.8065 35.7097C27.8065 36.1016 27.4887 36.4194 27.0968 36.4194H12.9032C12.5113 36.4194 12.1935 36.1016 12.1935 35.7097C12.1935 35.3177 12.5113 35 12.9032 35Z" fill="url(#paint0_linear_2930_8860)"/>
<g filter="url(#filter0_d_2930_8860)">
<rect x="12.0557" y="30.1306" width="15.8889" height="2.44444" rx="1.22222" fill="#CEEBF5"/>
</g>
<g filter="url(#filter1_d_2930_8860)">
<rect x="12.0557" y="34.4084" width="15.8889" height="2.44444" rx="1.22222" fill="#CEEBF5"/>
</g>
<defs>
<filter id="filter0_d_2930_8860" x="12.0557" y="30.1306" width="17.1109" height="3.66668" filterUnits="userSpaceOnUse" color-interpolation-filters="sRGB">
<feFlood flood-opacity="0" result="BackgroundImageFix"/>
<feColorMatrix in="SourceAlpha" type="matrix" values="0 0 0 0 0 0 0 0 0 0 0 0 0 0 0 0 0 0 127 0" result="hardAlpha"/>
<feOffset dx="0.611111" dy="0.611111"/>
<feGaussianBlur stdDeviation="0.305556"/>
<feComposite in2="hardAlpha" operator="out"/>
<feColorMatrix type="matrix" values="0 0 0 0 0.55 0 0 0 0 0.55 0 0 0 0 0.55 0 0 0 0.25 0"/>
<feBlend mode="normal" in2="BackgroundImageFix" result="effect1_dropShadow_2930_8860"/>
<feBlend mode="normal" in="SourceGraphic" in2="effect1_dropShadow_2930_8860" result="shape"/>
</filter>
<filter id="filter1_d_2930_8860" x="12.0557" y="34.4084" width="17.1109" height="3.66668" filterUnits="userSpaceOnUse" color-interpolation-filters="sRGB">
<feFlood flood-opacity="0" result="BackgroundImageFix"/>
<feColorMatrix in="SourceAlpha" type="matrix" values="0 0 0 0 0 0 0 0 0 0 0 0 0 0 0 0 0 0 127 0" result="hardAlpha"/>
<feOffset dx="0.611111" dy="0.611111"/>
<feGaussianBlur stdDeviation="0.305556"/>
<feComposite in2="hardAlpha" operator="out"/>
<feColorMatrix type="matrix" values="0 0 0 0 0.55 0 0 0 0 0.55 0 0 0 0 0.55 0 0 0 0.25 0"/>
<feBlend mode="normal" in2="BackgroundImageFix" result="effect1_dropShadow_2930_8860"/>
<feBlend mode="normal" in="SourceGraphic" in2="effect1_dropShadow_2930_8860" result="shape"/>
</filter>
<linearGradient id="paint0_linear_2930_8860" x1="20" y1="8.74194" x2="20" y2="39.2581" gradientUnits="userSpaceOnUse">
<stop stop-color="#3DACBC"/>
<stop offset="1" stop-color="#295A6B"/>
</linearGradient>
</defs>
</svg>
