<svg width="9" height="16" viewBox="0 0 9 16" fill="none" xmlns="http://www.w3.org/2000/svg">
<path d="M9.00018 8.02963C9.00132 8.227 8.96349 8.42265 8.88886 8.60536C8.81423 8.78807 8.70427 8.95426 8.56528 9.09439L2.56664 15.093C2.42682 15.2328 2.26082 15.3438 2.07813 15.4194C1.89544 15.4951 1.69963 15.5341 1.50189 15.5341C1.30414 15.5341 1.10834 15.4951 0.925644 15.4194C0.742953 15.3438 0.576956 15.2328 0.43713 15.093C0.297304 14.9532 0.186388 14.7872 0.110714 14.6045C0.0350412 14.4218 -0.00390631 14.226 -0.00390632 14.0283C-0.00390632 13.8305 0.0350412 13.6347 0.110714 13.452C0.186388 13.2693 0.297304 13.1033 0.43713 12.9635L5.401 8.02963L0.632085 3.08076C0.478685 2.9428 0.3554 2.77468 0.269941 2.58691C0.184481 2.39913 0.138686 2.19574 0.135418 1.98946C0.132149 1.78317 0.171478 1.57843 0.250946 1.38804C0.330415 1.19765 0.448313 1.02571 0.597266 0.882966C0.746218 0.74022 0.923022 0.629741 1.11662 0.558442C1.31022 0.487144 1.51644 0.456559 1.7224 0.468598C1.92836 0.480637 2.12962 0.535044 2.31359 0.628413C2.49756 0.721782 2.66029 0.852105 2.79159 1.01123L8.58027 7.00986C8.84469 7.28411 8.99481 7.64871 9.00018 8.02963Z" fill="#2791B5"/>
</svg>
