<svg width="51" height="31" viewBox="0 0 51 31" fill="none" xmlns="http://www.w3.org/2000/svg">
<path d="M25.5 0C10.965 0 0 5.4825 0 12.75C0 18.9975 8.1345 23.919 19.6605 25.194L18.5895 26.2395C18.3505 26.4766 18.1608 26.7586 18.0313 27.0693C17.9019 27.3801 17.8352 27.7134 17.8352 28.05C17.8352 28.3866 17.9019 28.7199 18.0313 29.0307C18.1608 29.3414 18.3505 29.6234 18.5895 29.8605C18.8266 30.0995 19.1086 30.2892 19.4193 30.4187C19.7301 30.5481 20.0634 30.6148 20.4 30.6148C20.7366 30.6148 21.0699 30.5481 21.3807 30.4187C21.6914 30.2892 21.9734 30.0995 22.2105 29.8605L27.3105 24.7605C27.5427 24.518 27.7246 24.232 27.846 23.919C28.101 23.2982 28.101 22.6018 27.846 21.981C27.7246 21.668 27.5427 21.382 27.3105 21.1395L22.2105 16.0395C21.7303 15.5593 21.0791 15.2896 20.4 15.2896C19.7209 15.2896 19.0697 15.5593 18.5895 16.0395C18.1093 16.5197 17.8396 17.1709 17.8396 17.85C17.8396 18.5291 18.1093 19.1803 18.5895 19.6605L18.8955 19.941C10.2 18.717 5.1 15.3 5.1 12.75C5.1 9.639 13.056 5.1 25.5 5.1C37.944 5.1 45.9 9.639 45.9 12.75C45.9 14.8665 42.2025 17.85 35.1645 19.38C34.8314 19.4438 34.5143 19.5735 34.2319 19.7613C33.9495 19.9492 33.7074 20.1915 33.5198 20.4741C33.3322 20.7567 33.2029 21.0738 33.1394 21.407C33.0759 21.7402 33.0795 22.0827 33.15 22.4145C33.2196 22.743 33.3535 23.0546 33.5438 23.3313C33.7342 23.6079 33.9773 23.8443 34.2593 24.0267C34.5413 24.2092 34.8565 24.3341 35.1869 24.3944C35.5172 24.4547 35.8563 24.4491 36.1845 24.378C45.492 22.338 51 18.003 51 12.75C51 5.4825 40.035 0 25.5 0Z" fill="white"/>
</svg>
