<svg width="44" height="44" viewBox="0 0 44 44" fill="none" xmlns="http://www.w3.org/2000/svg">
<path d="M23.7464 22L28.6346 17.1118C28.8666 16.8802 28.9971 16.5659 28.9974 16.2381C28.9977 15.9104 28.8677 15.5959 28.6361 15.3639C28.4045 15.1319 28.0903 15.0014 27.7625 15.0011C27.4347 15.0008 27.1202 15.1307 26.8882 15.3623L22 20.2505L17.1118 15.3623C16.8798 15.1303 16.5651 15 16.2371 15C15.909 15 15.5943 15.1303 15.3623 15.3623C15.1303 15.5943 15 15.909 15 16.2371C15 16.5651 15.1303 16.8798 15.3623 17.1118L20.2505 22L15.3623 26.8882C15.1303 27.1202 15 27.4349 15 27.7629C15 28.091 15.1303 28.4057 15.3623 28.6377C15.5943 28.8697 15.909 29 16.2371 29C16.5651 29 16.8798 28.8697 17.1118 28.6377L22 23.7495L26.8882 28.6377C27.1202 28.8697 27.4349 29 27.7629 29C28.091 29 28.4057 28.8697 28.6377 28.6377C28.8697 28.4057 29 28.091 29 27.7629C29 27.4349 28.8697 27.1202 28.6377 26.8882L23.7464 22Z" fill="white"/>
</svg>
